<?xml version="1.0" encoding="utf-8"?>
<!-- Generator: Adobe Illustrator 22.0.0, SVG Export Plug-In . SVG Version: 6.00 Build 0)  -->
<svg version="1.1" id="Layer_1" xmlns="http://www.w3.org/2000/svg" xmlns:xlink="http://www.w3.org/1999/xlink" x="0px" y="0px"
	 viewBox="0 0 720 720" style="enable-background:new 0 0 720 720;" xml:space="preserve">
<style type="text/css">
	.st0{fill:#1CBBC8;}
	.st1{fill:#FFFFFF;}
	.st2{fill:#E5A1A6;}
	.st3{fill:#EF4E24;}
	.st4{fill:#BE1E2D;}
	.st5{fill:#3595D2;}
	.st6{fill:#F4EC4F;}
	.st7{fill:#D1D3D4;}
	.st8{fill:#0DACAF;}
</style>
<path class="st0" d="M214.9,275.7c1.4,0.7,2.9,1.6,4.4,2c0.9,0.2,2.4,0,2.8-0.6c0.5-0.7,0.6-2.4,0.1-3c-1.3-1.4-3-2.6-4.8-3.4
	c-1.3-0.6-2.9-0.5-4.3-0.7C212.1,273,212.9,274.6,214.9,275.7z M467.5,297.8c0.2-2.8-0.7-5.1-3.6-5.8c-2.6-0.7-3.8,1.3-4.8,3.2
	C462.6,298.8,463.3,299,467.5,297.8z M472.1,366.8c3.5,0.3,7.3,0.7,10.4,2.3c4.7,2.3,8.9,2.4,13.3-0.2c1.1-0.6,2.2-1.3,3.3-1.8
	c12.2-4.5,17.5-14.5,21.4-25.8c-6.9-0.4-13.5-0.9-20-1.2c-6.9-0.3-12-5.3-18.7-7c-1.4,1.3-2.9,2.7-4.4,4.1c2.3-8,3.3-15.6-0.9-23.3
	c-4.3-8-11.5-11.4-20.3-14c-4.2,10.7-12.2,17.7-22,22.4c2.2,8.5,11.4,13.1,18.1,12.3c3.2-0.4,4.6-1.7,5.7-4.7
	c1.5-4.1,0.8-7.8-1.7-11.2c-1.1-1.6-2.1-3.2-3.4-5.1c2.6-1.1,4.5-1.7,6.2-2.5c5.3-2.4,12.6,1.9,12.8,7.6c0,1.1-0.5,2.6-1.3,3.3
	c-2.6,2.1-5.5,3.8-9,6.1c1,2.2-4,4.7-0.7,8c3.3,3.3,7,0.8,11.1-0.2c-0.4,1.5-0.4,2.8-1,3.2c-1.9,1.2-4,2.7-6.2,3
	c-2.5,0.4-4.7,1-6,3.1c-2.2,3.5-5.1,2.3-8.1,1.6c-3-0.8-4.2-2.5-3.9-5.5c0.2-2-0.5-3.2-2.7-3.9c-5-1.7-9.2-4.6-11.6-9.7
	c-0.7-1.5-3.1-3.1-4.6-3c-7.8,0.3-15.5-0.8-23.1-2.4c-9.2-1.9-18.4-4.4-25.5-10.9c-10.6-9.8-14.2-22.3-12.9-36.6
	c0.3-3.6,2.6-7.3,0.4-11.4c-1.1,0.2-2.4,0.3-3.4,0.7c-3.4,1.5-6.7,3.6-10.2,4.5c-5,1.3-6.6,4.5-7.1,8.9c-0.3,2.1-0.3,4.3-0.5,6.5
	c-0.5,5.7-0.9,11.5-1.6,17.2c-0.3,3,1,4.9,3.5,6c10.2,4.9,18.8,11.8,26.4,20.1c4.6,5,8.3,10.7,12.3,16.2c3,4.2,5.4,8.9,8.8,12.8
	c3.3,3.8,7.1,7.6,12.5,9.4c0.3-2.7,0.6-4.9,0.8-7.2c2.8-1.8,5.5-3.5,8.5-5.4c0.1-1.1,0-2.4,0.2-3.6c0.5-2.3,1-4.7,3.7-5.5
	c3-0.9,6.6,0.2,8.7,2.3c4.5,4.6,9.1,8.9,15.1,12c5.9,3,10.6,2.5,15.5-1.3c1.3-1,2.5-2.6,5.2-1.4c-2.1,2.6-4,4.8-6.1,7.4
	C463.4,365,467.5,366.5,472.1,366.8z M420,60.8c2.1,13.8,5.4,27.3,9.2,40.8c4.2,14.9,10.9,28.7,16.7,42.9c3.3,8.1,7.5,16,9.3,24.6
	c1.9,9.3,4.6,18.6,1.5,28.2c-0.3,0.9,0.2,2.1,0.4,3.3h13.4c-1-3.7-2-7-2.8-10.3c-3.3-12.5-3.1-25.3-4.1-38
	c-0.8-10.2-1.4-20.5-3.5-30.5c-0.7-3.5-1.6-7-3-10.3c-6.6-15.5-13.2-31.1-20.2-46.4c-1.6-3.5-1.5-6.7-0.8-10.6c0.8,1,1.7,2,2.2,3.2
	c2.3,5.4,4.3,11,6.7,16.4c3.8,8.5,8.1,16.8,11.9,25.3c2.7,5.9,4.7,12,7.4,17.9c3.4,7.3,7,14.5,9.3,22.3c3.2,11.2,6.2,22.5,5.8,34.3
	c-0.2,5.2-0.4,10.4-0.7,15.6c-0.2,3.3,0.3,6.9-0.8,9.9c-1.1,3.1-0.1,4.3,2.3,5.4c5.9,2.9,11.1,6.9,16.3,11.2c-0.1-2-0.7-3.7-0.9-5.6
	c-0.3-3-1.3-6.4-0.3-9c1.3-3.2,1.4-6.2,1.5-9.5c0.1-3.2,0-6.5,0.3-9.7c0.6-7.5,1.8-15.1,1.8-22.6c-0.2-14.9,1-29.9-1.7-44.8
	c-1.8-10-4.7-19.5-9.2-28.6c-2.7-5.4-6.5-10.2-9.8-15.3c-5.3-8.3-12.6-14.6-20.5-20.2c-5.8-4.2-12.1-7.5-18.7-10.4
	c-3.8-1.6-7.5-3.2-11.7-3.5c-7-0.6-7.7,0.3-9.2,7.4c-0.3,1.4-0.1,2.9,0.1,4.3C418.7,52.7,419.4,56.7,420,60.8z M318.7,116.6
	c0.6,5.6,3.5,10.2,6.1,14.8c5.4,9.6,12.5,17.9,20.6,25.4c6.2,5.7,12.3,11.3,19,16.4c9.1,7,18,14.1,26.3,22.2
	c6.6,6.4,5.7,16.7,0.3,21.7c-3.3,3.1-6.9,5.8-10.5,8.4c-3.8,2.7-8.1,4.7-11.7,7.7c-6.5,5.5-11.5,12.4-15.3,20
	c-0.4,0.8-0.5,1.8-0.9,3.3c4.5-1.6,8.7-2.4,9.2-7.7c0.1-0.7,0.5-1.3,0.8-2c2.1-5.4,5.1-7.5,10.8-6.9c3.2,0.3,6.3,1.5,9.5,2
	c6.7,1.1,13.7,1.3,20.2,3.1c11.6,3.2,23.8,4,35.3,7.9c5.5,1.9,10.7,4.1,15.2,7.9c2.4,2.1,4.9,4.3,7.8,5.6c6,2.7,12.3,3.9,19,3
	c4.2-0.5,8.6-0.6,12.9-0.3c5.2,0.4,10.3,1.4,15.4,2.4c4.7,0.9,9.4,2.2,14.1,3.4c3.6,0.9,7.1,1.9,11.2,3c-0.1-4-1.1-6.9-3.6-9.2
	c-6.6-6-7.5-6.2-19.6-4.4c2.6-6.2,5-7.6,12.4-7.6c1,0,2-0.4,3.7-0.8c-2.3-3-4-5.4-5.9-7.6c-6.2-7.7-14.1-14-19.2-22.6
	c-1.6-2.7-3.9-2.7-6.2-2.4c-7.6-12.3-26-21.1-37.9-17.9c1.7,3.7,3.3,7.3,5.4,12c-1.8-1-2.9-1.3-3-1.8c-0.8-3.5-3.9-5.5-5.6-8.3
	c-5.5-9.2-10.9-18.5-16.3-27.8c-6.6-11.4-14.1-22.1-22.5-32.2c-5.3-6.5-11.1-12.7-17.2-18.4c-6.9-6.5-14.1-12.9-21.9-18.4
	c-9.3-6.6-19.3-12.3-29-18.4c-2.7-1.7-5.5-3.5-8.3-5c-4.7-2.7-9.5-5.1-14.1-7.8c-4.4-2.6-6.8-2.2-8,2.6c-2.1,8.1-4.2,16.3-0.9,24.8
	C317.5,109.8,318.3,113.2,318.7,116.6z M467.9,224.6c6.3,7.4,9.9,16.5,19,22.4c1.7-15.3-5.3-25.7-15.1-35c0.2-0.3,0.5-0.7,0.7-1
	c1,0,2.4-0.3,3,0.2c3.1,2.7,6,5.5,8.9,8.4c1.6,1.6,3,3.5,4.5,5.1c1,5.3,2,10.8,3,16.2c0.6,3.1,0.3,6.1-1.7,8.6
	c-1.9,2.6-3.9,3.1-6.4,0.9c-7.5-6.3-13.1-14.1-16.2-23.5C467.4,226.4,467.8,225.4,467.9,224.6z M447.2,234.8c2.7,1.8,4.1,6.8,2,9.2
	c-0.8,0.9-2.5,1.6-3.7,1.5c-2.6-0.2-5.5-0.5-7.8-1.7c-6.3-3.3-12.8-5.5-19.9-5.9c-0.7,0-1.3-0.5-2.4-0.9c2.1-4.4,6.1-5.1,9.3-5.5
	C432.5,230.5,440.3,230.2,447.2,234.8z M327.1,87.9c9.2,3.5,18.2,7.2,26.9,12c16.5,9,31.3,20.2,43.4,34.7
	c9.3,11.2,15.9,23.9,20.1,37.8c3,9.9,3.1,20.3,2.5,30.6c-0.1,2.5-0.9,5.2-3.8,6.1c-2.7,0.8-4.6-0.6-6.6-2.5
	c-6.9-6.6-14-13-20.9-19.5c-2-1.9-3.8-4.1-5.9-6.5c3.1-0.9,4.8,0.6,6.3,2c7,5.9,14,11.9,20.9,17.8c1.3,1.1,2.6,2.1,3.9,3.2
	c0.7-0.8,1.2-1,1.2-1.3c-0.1-16.4-1.6-32.5-9.8-47.4c-11.1-20.4-26.9-36-46.7-48.1c-9.5-5.8-19.7-10.3-29.6-15.3
	c-1.3-0.7-2.5-1.7-4.5-3C326.2,88,326.7,87.7,327.1,87.9z M400.1,575.1c8.7-2,16.9-4.8,24.8-8.9c10.1-5.2,18.4-12.4,24.9-21.8
	c3.1-4.5,5-9.4,6.9-14.5c2.3-6.1,2.6-11.7-1.4-17.3c-5.9-8.2-7.5-17.6-8.2-27.4c-0.4-5.9,1.5-11.8-0.9-17.6
	c-0.3-0.8,0.7-2.5,1.5-3.2c2.3-2,2.5-4.3,2.4-7.2c-0.5-14.8,0.4-29.5,5.6-43.6c0.8-2.3,1.9-4.5,3.2-7.3c-5-2.8-9.7-5.3-14.4-8
	c-6.5-3.8-13.4-5.9-21-6.1c-2.7,0-5.8-1.1-8-2.7c-2.2-1.5-4.6-4.2-5-6.6c-0.9-6.6-3.1-11.7-9.5-14.6c-2.1-1-3.8-2.8-5.6-4.2
	c-1-0.8-2-2.3-3-2.2c-4.1,0.2-5.1-3.3-6-5.6c-3.3-8.2-7.6-15.7-13.3-22.5c-6.5-7.8-14-14.4-22.5-19.8c-3.2-2-6.5-3.8-9.9-5.3
	c-5-2.2-10.2-4-15.4-5.9c-7.1-2.6-14.1-5.2-21.3-7.4c-8.7-2.7-17.6-5.1-26.3-7.6c-2.2-0.6-4.5-1.2-6.7-1.8
	c-6.2-1.8-12.6-3.2-18.4-5.8c-6.7-3-12.8-7.3-19.2-10.8c-3.3-1.8-6.5-4.2-11.9-3.9c1.9,2.1,2.9,3.8,4.4,4.8c4.3,2.9,6.7,6.7,6.8,12
	c0,2.2,1.4,4.4,2.3,6.5c0.3,0.8,1.4,1.3,1.6,2c0.3,0.7,0.3,1.9-0.2,2.5c-0.4,0.5-1.6,0.7-2.3,0.5c-3.5-0.8-5.9-3.9-6.2-7.8
	c-0.2-2.2,0.1-4.7-3.6-5.2c-0.5,5.3-0.9,10.2-1.4,15.4c1,0.7,2.2,1.5,3.4,2.2c5.4,3.1,11.2,5.8,16.3,9.4c8.2,5.7,15.9,12.1,24,18
	c2.4,1.8,5.1,3.7,8,4.4c4.8,1.3,10,1.4,14.9,2.6c3.8,0.9,8,1.9,10.9,4.2c5.6,4.6,10.5,10.2,15.6,15.4c1.5,1.5,2.7,3.4,4.3,4.8
	c4.6,4,9.3,7.8,14,11.8c0.7,0.6,1.1,1.7,1.7,2.7c-4.4,0.2-5.8-0.2-9-2.8c-2.4-1.9-4.7-3.8-7.9-1.8c0.1,0.9,0.3,1.7,0.3,2.6
	c0.2,8.7-2.6,16.8-5.8,24.5c-6.2,14.8-13.5,29-22.9,42c-2.6,3.6-5.2,7.3-7.7,11c-5.2,7.7-10.1,15.6-15.4,23.2
	c-4.6,6.5-9.4,12.8-14.4,18.9c-10.4,12.4-20.4,25.1-27.7,39.7c-2.3,4.6-4.6,9.4-6.2,14.3c-1.8,5.4-3.4,11-4.1,16.6
	c-1.1,8.2-1.6,16.4-0.3,24.7c0.5,3.3,1.1,6.3,2.8,9.2c0.6,0.9,1.3,1.8,1.6,2.8c2.1,7.6,8.4,11.2,14.7,13.7c10.2,3.9,20.9,3.9,31.2,0
	c8.6-3.3,16.7-7.7,22.6-15.1c1.1-1.4,2.5-2.7,4.1-1.5c2.2,1.6,3.6,0.2,5.3-0.7c4.7-2.3,9.2-5.3,14.1-6.6c8-2,16.2-3.2,24.4-4.1
	c12-1.4,24.1-1,36.1-2.5C381.1,578.5,390.7,577.3,400.1,575.1z M508.3,624.8c-5.4-4-11.9-4.8-18.1-6.7c-4.1-1.2-8.4-1.8-12.7-2.3
	c-11.6-1.6-23.2-2.9-34.8-4.5c-1.1-0.2-2.4-0.9-3.1-1.8c-1.9-2.4-4.3-3.1-7.2-2.5c-5.5,1.1-10.9,2.1-16.4,3.3
	c-2.1,0.5-3.9,0.7-5-2.1c0.6-0.5,1.1-1.4,1.9-1.6c5.7-1.6,11.4-4,17.2-4.5c8.9-0.8,17.1-4.3,25.6-6.5c10.1-2.6,19.5-7.3,28.4-12.8
	c0.9-0.6,1.8-1.2,2.6-1.9c8.4-7.5,15.3-15.7,17.3-27.5c0.7-4.4,0-8.4,0.4-12.6c0.2-1.7-0.7-3.5-1.2-5.2c-0.9-2.8-2.6-3.9-5.6-3.7
	c-3.1,0.1-6.1,0.2-9.2,0.3c-6.8,0.2-13.2-1.2-18.9-5.3c-1.9-1.3-4.1-2.1-6.5-3.2c-1.5,4.7-2.7,8.8-4,12.9
	c-4.2,12.3-12.4,21.5-22.8,28.6c-9.5,6.5-20.4,10.3-31.3,14.1c-1.2,0.4-2.5,0.6-3.7,0.6c-4.8,0-7.9,2.6-11,5.9
	c-5.5,5.9-10.7,12.1-17.6,16.6c-3.5,2.3-6.7,5.4-9.5,8.6c-2.6,2.9-1.8,6.4,1.5,8.2c3.5,1.9,7.1,3.8,10.9,4.7
	c8.7,2,17.2,5.1,26.3,5.4c6.7,0.2,13.5,2.2,20.1,3.8c8.8,2.2,17.7,4.6,26.4,7.3c8.5,2.7,16.8,6.1,24.9,10.1
	c2.9,1.4,6.7,1.3,10.1,1.5c2,0.1,4.4-0.9,3.8-3.5c-1-4.1-2.2-8.4-4.2-12.1c-2.6-5-6.5-9-11.6-11.7c-0.7-0.4-0.9-1.5-1.7-3.1
	c1.9,0.4,3,0.4,3.9,0.8c3.3,1.7,6.6,3.4,9.3,6.2c4,4,6.2,8.7,7.6,13.9c1,4,4.2,6.2,8.1,4.9c2.1-0.7,3.4-2,3.1-4.4
	c-0.6-5.1-1.9-9.8-5.5-13.7c-1.8-1.9-3.3-4.1-5.1-6.3c2.9-0.1,2.9-0.1,5.2,1.1c7.1,3.9,8.4,11.5,11.1,18c5.4,0.1,7-1.2,7.5-5.7
	C515.1,631,512.2,627.7,508.3,624.8z M318.7,367.1c0.1,0,0.1-0.1,0.2-0.1c0,0,0,0,0-0.1C318.8,366.9,318.7,367.1,318.7,367.1z
	 M517.4,384.7c-6-5.1-13.2-7.1-20.6-8.7c-4.6-1-9.3-1.2-13.8-2.4c-4.4-1.1-8.6-2.4-13.2-2.2c-1.4,0.1-2.8-0.5-4.2-0.9
	c-3.1-1-6.1-2.2-9.3-3c-11.3-2.7-21-8.1-28.9-16.5c-2.2-2.3-4-2.6-7.1-0.5c1.8,2.3,3.4,4.4,5.5,7.1c-5.2,0.9-10.9-0.5-13.5,6.6
	c2.4-0.2,3.8-0.4,5.3-0.5c3.1-0.2,6.2-0.7,9.5,3c-3.3,0.2-5.5,0.5-7.7,0.6c-5.4,0.2-6.6,1.6-6.3,7.5c2.1,1.3,4,0.4,6-0.6
	c2.1-1,4.2-1.7,7,0.5c-4.8,1.8-9.7,2.8-10.5,8.6c2.2,2.1,4.5,3.2,7.5,3.7c5.8,1,11.6,2.3,17.2,4.2c12,4.1,22.1,11.9,33,18
	c7.4,4.2,15.1,7.6,23.8,7.9c3.8,0.2,7.8,0.4,10.9-2.2c3.6-3.1,6.9-6.7,10.3-10.1c1.1-1.1,2.1-2.1,3.7,0c-2.3,4.1-4.4,8.4-8.2,11.5
	c-9.9,8.1-20.5,7.3-31.5,2.5c-2.1-0.9-4.4-1.5-6.5-2.4c-2.2-1-4.3-2.4-6.8-3.8c-4.1,7.2-6.8,14.4-7.7,22.9c4-0.6,5.6-3.2,7.9-4.9
	c4.2-3.3,4.3-3.3,7.3-2.4c-1.5,1.5-2.9,2.9-4.3,4.4c0.2,0.5,0.5,1.1,0.7,1.6c4.3,0,8.6-0.3,12.8,0.1c9.4,0.8,18.5-1.1,26.7-5
	c9.6-4.6,16.7-12.3,20-22.8c0.7-2.4,0.3-4.8-1.2-7.2C527.5,393.4,522.5,389.1,517.4,384.7z M239.7,618.3c-0.3,1.7-0.7,2.9-0.8,4.1
	c-1.1,11.8-9,20.9-20.9,22.5c-6.8,0.9-13.7,1.1-20.5,1.8c-7.1,0.7-14.5,0.1-21.3,3c-2.1,0.9-4.3,1.9-6.6,2.4
	c-3.9,0.7-6.6,3.3-8.5,6.1c-2,2.9-2.8,6.7-0.6,10.2c0.9,1.5,2.4,1.5,3.3,0c1.1-1.8,2-3.9,3.4-5.4c4.4-4.7,9.9-7.7,16.1-9.3
	c2.2-0.6,4.8-1.6,8,0.9c-10.3,3.6-20.5,6.6-24.3,18.2c1.7,1.5,3.3,3.3,5.2,4.6c3.7,2.5,5.8,1.6,6.8-2.7c1.7-7.6,10-15.4,17.4-16.4
	c7.3-1,14.3,0.7,21.2,3c1.1,0.4,1.8,1.9,3.1,3.3c-1.5,0.6-2.4,1.2-3.1,1.1c-2.8-0.4-5.7-0.7-8.4-1.5c-6.4-2-12.4-1.9-18.2,1.7
	c-4.5,2.8-6.8,6.9-6.7,12.2c0.1,3.9,1.4,5.1,5.4,5.2c5.4,0.1,10.9,0.4,16.3-0.1c5.5-0.5,11.3-1,16.4-3c7.3-2.8,14.1-6.9,20.9-10.7
	c11.5-6.4,21.6-14.5,30.8-23.9c5.9-6.1,9-13.3,8.3-22c-0.5-6.1,0.8-11.8,3.8-17.2c0.4-0.7,0.3-1.6,0.5-3.6
	C272.3,613.5,257.3,620,239.7,618.3z M226.6,494.2c0.7-1.8,0.8-3.6,1-5.5c0.3-3.1,0.3-3.1,2.1-3.2c0.8,3.3,1.3,6.7,2.5,9.7
	c1.4,3.3,6,3.9,8.1,1.3c4.9-6,9.7-12,14.3-18.2c5.9-7.8,11.6-15.8,17.4-23.8c-1.5-3.9-4.9-5.8-8.7-7.2c-5.6-2-11.3-3.6-17.3-2.7
	c-11.7,1.7-19.9,8.9-26.4,18c-3.1,4.4-5.4,9.7-4.5,15.6c2.5-7.5,5.7-14.4,12.1-19.4c1.5-1.2,2.9-2.2,5.1-0.6
	c-3.5,4.4-7.7,8.3-10.2,13.1c-2.5,4.9-4,10.6-2.5,16.4c0.1-5.2,3.1-9.1,6.1-13.2C222.8,481.5,223.2,487.9,226.6,494.2z M220.1,290.6
	c-2.5,0.5-4.6-0.5-6.5,1.2c1.5,3,4.2,2.3,6.7,3.1C220.3,293.5,220.2,292.5,220.1,290.6z M211.5,285c1.9,0.5,3.9,0.7,5.8,0.7
	c2.9,0.1,3.2-1.5,2.3-3.8c-2.4-0.6-4.6-1.4-6.8-1.7c-0.9-0.1-2.4,0.6-2.9,1.4C209.1,283.1,209.9,284.6,211.5,285z"/>
<path class="st1" d="M562.7,463.9c-0.2-1.4-0.6-2.8-0.7-4.2c-0.8-9-0.9-18-2.3-26.9c-1.5-9-3.7-18-6.6-26.6
	c-3.9-11.5-10-21.9-19.5-29.9c-3.1-2.7-6.7-4.9-10.2-7c-4.1-2.4-6.1-5.4-2.9-10c3.1-4.3,4.6-9.7,6.9-14.5c0.9-1.9,1.9-4,3.4-5.2
	c7.1-5.4,11-12.7,13.7-20.9c2.2-6.7,4-13.4,8.6-19.4c7.2-9.2,3.3-16.6-6.6-20.1c-0.2-0.1-0.4-0.1-0.5-0.1c-5.1-1.7-5.5-2.4-5.8-7.7
	c-0.1-2.8-0.1-6-1.3-8.4c-3.9-8.1-8.5-15.8-14.7-22.5c-5.3-5.7-10.6-11.4-15.2-17.6c-2.5-3.3-4.8-7.5-5.3-11.6
	c-0.8-5.8-0.1-11.9,0.2-17.8c0.9-15.6,2.2-31.3,2.7-46.9c0.4-12.4,0.2-24.8-2.6-37.1c-1.7-7.4-3.5-14.6-6.4-21.5
	c-6.3-14.7-15.8-27-28.1-37.2c-10.9-9-23.2-15.6-36.7-19.9c-3.4-1.1-7.2-1.3-10.7-1.1c-5.6,0.3-10.3,6-10.4,12.6
	c-0.1,4.5,0.5,9,1,13.4c0.8,7,2,13.9,2.7,20.9c0.8,7.2,2.9,14,4.5,21c2.2,9.6,5.4,18.9,9.1,28.1c5,12.5,10.3,24.9,15.3,37.4
	c2.2,5.4,4.1,10.9,4.8,18c-1.1-1.4-1.6-1.8-1.9-2.3c-8-12.8-15.8-25.7-25.8-37.2c-11.9-13.6-24.9-26-39.5-36.7
	c-15-11-31.2-20-47.2-29.5c-3.2-1.9-6.7-3.6-10.2-4.9c-5.4-2-8.7-0.7-12.4,3.7c-2.4,2.8-2.4,6.3-3.4,9.5c-2.6,8.9-2.2,18-0.7,26.8
	c1.3,7.5,4.1,14.7,7.7,21.7c3.2,6.4,7.3,12,11.6,17.4c8.8,11.1,19.7,20.1,30.6,28.9c7.6,6.1,15.5,11.8,23.1,17.9
	c2.2,1.8,4,4.1,5.4,6.6c1.7,2.8,1.7,6-1.2,8.3c-2.9,2.4-5.8,4.8-8.8,6.9c-2.5,1.8-5.3,3.1-7.7,4.9c-10.6,7.9-19.2,17.4-24,29.9
	c-1.6,4.1-4.6,6.4-8.9,7.8c-5,1.6-9.4,4.1-12.4,8.9c-3.6,5.6-8.1,10.6-12,16c-1.4,2-2.9,2.6-5,1.9c-6.2-1.9-12.3-3.8-18.5-5.7
	c-5.8-1.8-11.6-3.6-17.5-5.3c-8.7-2.4-17.2-5.1-24.9-9.9c-5.9-3.7-12.2-6.9-18.5-10c-4.6-2.3-9.7-0.8-13.2,2.8
	c-1.3,1.4-3,2.4-4.5,3.6c-3.3,2.6-6.4,5.4-5.5,10.3c0.2,1.1-0.3,2.5-0.9,3.5c-2.4,4.4-2.7,8.5,1.1,12.3c0.7,0.7,1.5,1.8,1.5,2.7
	c0,5.7,3.9,7.8,8.3,9.4c5.9,2.3,11.9,4.2,17,8c9.7,7.3,19.2,14.6,28.9,21.9c6.7,5.1,14,8.5,22.7,8.9c7.2,0.3,13.8,2.6,18.8,8.2
	c3.6,4,7.2,8.1,11,12c2.2,2.3,2.5,4.8,1.8,7.5c-3.1,11.1-6.9,22-12.2,32.2c-5.1,9.7-10.7,19.2-16.3,28.6c-3.3,5.5-7,10.8-10.7,16.5
	c-5.8-5.5-12.4-7.9-19.8-8.4c-7.8-0.6-15.7-0.7-22.7,3.4c-13.1,7.7-22.9,17.9-25,33.9c-1.4,11.2,1.3,20.8,9.9,28.2
	c2.8,2.4,6.3,3.9,9.8,5.9c-0.5,1.1-0.8,2.2-1.5,3.3c-7.6,12.2-15.1,24.5-18.2,38.8c-1.6,7.5-3.1,15.1-3.6,22.8
	c-0.3,5.1,0.9,10.4,1.8,15.5c2,11.7,8.7,20.3,18.4,26.7c1.5,1,3.1,1.9,4.6,2.8c2,1.2,2.5,3.2,1.7,5.2c-1.7,4.4-3.8,8.4-8.5,10.7
	c-5.1,2.4-10.4,2.7-15.8,2.9c-11.7,0.4-23.4,1.5-34.5,5.5c-6.3,2.3-12.2,5.2-16.3,11.1c-4.3,6.1-5.1,16.6,3.4,22.5
	c1.6,1.1,2.9,2.6,4.2,4c2.6,2.8,5.4,5.3,9.5,5.7c3.7,0.3,6.8,1.8,9.8,4.2c1.5,1.2,3.8,2.2,5.8,2.2c9.2-0.1,18.4-0.4,27.6-1.1
	c4.2-0.3,8.5-1.6,12.5-3.1c5-1.9,9.9-4.4,14.6-7c14-7.9,27.1-17.2,38.4-28.8c6.8-7.1,11.7-15.1,10.5-25.6
	c-0.6-5.4,0.2-10.7,2.1-15.9c2.1-5.4,5.4-10,10.5-12.6c7.7-4.1,16.1-6.4,24.7-7.1c13.1-1.1,26.2-1.9,39.4-2.8
	c2.1-0.1,4.1-0.4,6.2-0.6c0.2,0.4,0.4,0.9,0.6,1.3c-0.8,0.9-1.4,1.9-2.4,2.6c-2.5,1.8-5,3.5-7.6,5.2c-4.8,3.1-8.7,6.8-11.1,12.2
	c-2.5,5.7-1.5,12.3,3.4,16.1c2.6,2.1,5.7,3.7,8.8,5.1c9.4,4.2,19.2,7.4,29.5,7.8c7.5,0.3,14.6,1.9,21.8,3.4c8.1,1.7,16,4,23.9,6.4
	c8.8,2.7,17.6,5,25.8,9.5c2.7,1.4,5.7,2.5,8.6,3c5.7,1.1,11.5,1.6,16.5-2.7c0.8-0.7,2-1.5,2.9-1.3c5,1.1,8.6-1.5,12.4-4.1
	c1.1-0.8,2.7-0.8,4.1-1.1c7.2-1.5,13.5-9.8,12.6-16.7c-1.1-9-5.7-15.5-14.2-18.8c-6.2-2.4-12.5-4.6-18.9-6.1
	c-6.3-1.5-12.8-2-19.2-2.8c-3.8-0.5-7.6-0.9-11.4-1.4c-0.1-0.5-0.1-1-0.2-1.4c1.3-0.6,2.7-1.4,4.1-1.8c13.4-4.4,25.3-11.2,35.2-21.4
	c6.6-6.8,10.9-14.9,12.9-23.9c1.4-6.8,1.3-13.9-0.8-21.5c2.4-0.1,4.2-0.2,6.1-0.1c7.9,0.3,15.5-1,22.2-5.5
	c14.9-9.8,21.5-24.1,22.4-41.5c0.3-6.4-0.9-13,1.3-19.3C563.6,467.3,562.9,465.5,562.7,463.9z M558,474.9c-0.3,3.8-0.2,7.6-0.1,11.4
	c0.4,12.7-3.9,23.6-12.3,33c-7.2,8.1-16.3,12.1-27.1,12.4c-3.9,0.1-7.8,0.5-12.1,0.8c2.7,8.4,3.6,16.2,1.6,24.1
	c-2.5,10.2-7.8,18.6-15.7,25.3c-10.5,8.8-22.5,14.7-35.8,18.4c-5.1,1.4-10.1,3.2-15.5,4.9c1.3,2.5,3.7,2.7,5.9,2.9
	c4.7,0.4,9.4,0.4,14.1,0.7c2.9,0.2,5.7,0.7,8.5,1.1c1.8,0.3,3.5,0.9,5.3,1c10.7,0.4,20.8,3.4,30.8,6.8c4.8,1.7,8.8,4.8,11.7,9.2
	c4.5,7,2.9,16.2-4.7,19.3c-4.5,1.8-9.3,2.9-13.3,5.8c-0.9,0.7-2.5,0.8-3.7,0.5c-2.8-0.7-4.8,0.3-6.8,2.1c-1.2,1.1-3.1,1.6-4.8,1.9
	c-5.7,1-11.1-0.7-16.1-3.1c-9.8-4.7-20.1-7.7-30.5-10.6c-7.6-2.1-15.2-4.5-22.9-6.1c-6.5-1.4-13.1-2.6-19.7-2.8
	c-11.6-0.4-22-4.8-32.2-9.3c-6.6-2.9-8.1-10.3-4.2-16.5c2.9-4.5,7.5-7.2,11.5-10.5c4.5-3.6,8.7-7.6,12.9-11.5
	c0.7-0.6,0.9-1.8,1.6-3.1c-8.2,0.7-15.8,1.4-23.5,2c-8.3,0.6-16.5,1.1-24.8,1.6c-12,0.7-23.5,2.7-34.4,8.2
	c-7.2,3.6-10.6,9.9-12.9,17.1c-1.2,3.8-1.5,7.7-1.1,11.7c1,11.3-4,20.4-11.9,27.8c-12.3,11.6-25.8,21.4-40.8,29.1
	c-3.7,1.9-7.4,3.8-11.2,5.3c-4.7,1.8-9.7,2.5-14.8,2.4c-6.3-0.2-12.6,0.2-18.9,0.5c-2.9,0.1-5.2-0.7-7.3-2.9c-1-1-2.7-1.7-4.1-2
	c-5.6-1.1-10.8-2.8-14.2-7.9c-0.6-0.9-1.6-1.5-2.5-2c-7.7-4.1-9.4-12.9-1.5-20.8c4.4-4.3,10.1-6.4,15.8-7.8c6.4-1.6,13-2.8,19.6-3.8
	c4.6-0.7,9.3-1.1,14-1c5.8,0.1,10.9-1.7,15.8-4.5c4.8-2.8,6.8-7.3,7.7-12.4c0.9-4.9-1.4-8-5.7-9.9c-5.3-2.3-9.1-6.3-12.5-10.8
	c-6.7-9-8.2-19.3-8.2-30.1c0-13.2,3.7-25.5,9.1-37.4c4.2-9.2,9.4-17.8,15.3-26c0.6-0.9,1.1-1.8,1.7-2.9c-3.3-1.3-6.5-2.5-9.5-3.8
	c-10.9-5-16.3-19.6-13.2-30.3c4.2-14.6,13.6-24.4,27.3-30.1c3.8-1.6,8.5-2,12.7-1.8c9,0.4,17.6,2.4,23.6,10.7
	c1.2-1.1,2.2-1.8,2.8-2.8c10.6-15.4,20.8-31.2,28.9-48.1c4.4-9.2,8.2-18.7,10.2-28.8c0.3-1.6,1.8-2.9,2.8-4.3c0,0-0.2,0.2-0.2,0.2
	c0.5-3.5-1-6.3-3.3-8.8c-4.1-4.4-8.1-8.7-12.3-12.9c-4.7-4.7-10-8.1-17-8.4c-12.1-0.4-21.7-6.2-30.9-13.8
	c-10.6-8.9-21.3-17.9-34.5-22.9c-2.5-1-5-1.9-7.5-3c-2.6-1.1-4.3-3-4.8-6c-0.2-1.6-1.4-3.1-2.5-4.5c-2.5-3.3-2.8-4.4-0.1-7.5
	c1.5-1.7,2-3.3,1.5-5.4c-0.8-3.6,0.9-5.7,3.9-7.4c2.3-1.3,4.8-2.2,6.3-4.8c1.2-2,3.7-2.2,5.9-1.4c3.2,1.1,6.4,2.3,9.4,3.9
	c4.6,2.4,9.1,5.2,13.5,7.9c7.3,4.5,15.7,6.1,23.8,8.7c6.5,2.1,13,3.9,19.5,5.9c7.5,2.2,15,4.5,23,6.8c0.8-5.7,4.8-9,7.6-13
	c0.9-1.3,2.2-2.5,2.9-3.9c3.6-7.7,10.5-11.1,17.7-14c3.1-1.2,5.2-3.2,6.3-6.2c4-10.8,10.7-19.6,19.3-27c4.1-3.5,9-5.9,13.5-8.9
	c2-1.3,3.8-2.7,5.7-4.1c6.7-4.9,6.1-15.2,1-19.5c-6.2-5.3-12.4-10.5-18.7-15.5c-10.5-8.3-21-16.5-30.5-26
	c-8.6-8.5-15.5-18.2-20.6-29c-3.2-6.8-6.3-14-5.8-22.1c0.4-5.5,0-11.1,0.1-16.7c0.1-4.5,1.8-8.4,4.6-11.9c2.6-3.3,4.2-3.6,7.9-1.6
	c16.8,9.1,33.2,18.8,49.1,29.4c13.1,8.8,25.2,18.7,36.1,30c7.9,8.2,15.1,17,21.2,26.6c6.8,10.8,13.4,21.7,20.1,32.6
	c0.6,1,1.5,1.7,3.4,2.3c0-2.6,0.3-5.3-0.1-7.8c-1.5-10.5-3.7-20.8-7.8-30.6c-6.3-15.2-13.1-30.2-18.7-45.7
	c-3.5-9.9-5.2-20.4-7.5-30.7c-1.5-6.7-3-13.4-3.7-20.1c-0.7-6.6-0.7-13.4-0.4-20c0.2-4.3,6.3-8,10.7-6.9
	c22.8,5.8,41.5,17.9,55.8,36.7c5.9,7.8,11.2,16,14.1,25.3c2.5,7.8,4.9,15.6,5.5,24c0.6,8.2,2.1,16.4,1.6,24.7
	c-0.4,7.5-1.2,15.1-1.6,22.6c-0.3,5.8-0.2,11.6-0.6,17.3c-0.5,7.7-0.9,15.4-1.8,23.1c-0.8,7.1,2,12.8,6,17.9
	c5.2,6.5,10.7,12.7,16.4,18.7c5.8,6.1,9.5,13.5,13.1,20.9c0.9,1.9,0.9,4.2,1.3,6.3c0.1,0.5,0,1.1,0,1.6c0.4,7.1,2.2,9.3,9.2,11.1
	c1.2,0.3,2.5,0.5,3.5,1.1c4.9,3.3,5.7,9,0.6,13.2c-4.6,3.7-5,8.8-7,13.4c-2.1,4.9-3.3,10.2-5.5,15.1c-2.5,5.6-7,9.5-11.9,12.3
	c-1.2,4-2,7.7-3.5,11.1c-1.6,3.6-3.8,6.9-6.1,10.1c-2.1,2.9-4.6,5.5-6.9,8.1c4.5,1.7,8.9,2.8,12.7,4.9c11.9,6.5,20.3,16.4,25.4,29
	c2.2,5.4,4.6,10.9,6.2,16.5c1.4,5,1.9,10.2,2.8,15.3c0.1,0.9-0.1,1.9,0.2,2.7c2.3,7.6,1.9,15.3,2.1,23.1c0.1,2.8,1.8,5.5,1.8,8.2
	C559.8,469.8,558.2,472.3,558,474.9z M544.7,442.2c0.3-9.7-3.4-18.6-5.6-27.8c-0.4-1.6-1.6-3-2.8-5.3c-0.7,1.8-1.2,2.7-1.5,3.6
	c-1.8,5-4.8,9.2-8.8,12.7c-7.3,6.4-15.5,10.6-25.2,12.5c-9.6,1.9-19,1.9-28.5,0.8c-2.7-0.3-5.3-1.7-7.3,1.2c-1.6,2.4-4,4.6-4.5,7.2
	c-0.8,3.8-0.2,7.8-0.2,11.7c0.5,0.2,1,0.3,1.4,0.5c0.6-1,1.2-2,1.8-2.9c2-3,3.6-6.2,6-8.9c3.6-4.1,8.4-4.9,13.1-2.1
	c2.6,1.5,4.7,3.8,7.1,5.9c5.5-1.5,11.1-1.5,16.5,1.4c1.9,1,3.6,2.3,5.5,3.3c2.9,1.6,3.7,1.2,5.7-1.3c2.4-2.9,4.7-5.9,7.4-8.5
	c4.7-4.4,12.4-4.3,17,3.2c1.4,2.3,2.5,4.9,3.7,7.4c1-1.5,1.1-3,0.9-4.4C545.9,448.9,544.6,445.5,544.7,442.2z M514.6,452.4
	c-3.7-1.6-7-3-10.2-4.4c-3.4-1.4-6.9-1.7-10.6-1.3c-2.4,0.3-5.1,0-5.6-4.1c19.3,0,35.5-6.3,47.5-22.4c3.4,3.1,2.8,7.2,3.9,10.5
	c1.1,3.3,1.3,6.9,2.2,11.6C528,435.5,520.5,442.7,514.6,452.4z M488.1,325.7c6,4.4,12.9,6,20.1,6.8c0.9,0.1,1.8-0.3,2.7-0.5
	c-2.8-1.7-5.8-2.3-8.5-3.3c-4-1.6-8.1-3.1-11.6-5.5c-3.6-2.4-5.9-6-5.7-10.9c0.3-6.7,0.1-13.3,0.1-20c0-6.1,2.3-8.4,8.3-9.1
	c1.9-0.2,3.7-0.6,5.6-1c0.1-0.5,0.2-0.9,0.3-1.4c-0.8-0.6-1.5-1.7-2.3-1.8c-4.5-0.2-8.9-0.8-13.2,1.6c-3,1.7-4.7,4.1-5.1,7.1
	c-1,6.9-2.3,13.9-0.1,20.8C480.7,314.9,482.3,321.5,488.1,325.7z M407.8,256.1c-1.2-0.2-2.7,0.1-3.7-0.5c-4.3-2.2-8.8-1.4-13.3-1.8
	c-5.9-0.5-10.5,3.3-11.3,10.4c-0.3,2.9-0.9,5.7-1.2,8.6c-0.4,4.7-1.3,9.4-0.8,14c0.7,7,3.2,13.4,9.6,17.4c3.7,2.2,7.6,4.1,11.5,5.9
	c1.4,0.6,3.3,1.4,5.3-0.7c-4.1-2.2-7.8-3.9-11.2-6c-3.7-2.3-7.2-4.9-8.7-9.3c-2.2-6.2-3.3-12.5-1.3-19.1c0.7-2.4,0.5-5.1,1.2-7.4
	c1-3.2,1.6-7.2,3.9-9c4.6-3.6,10.3-3.5,15.9-1.5c1.3,0.5,2.7,0.8,4.1,1.1c2.8,0.6,5.6,1.2,8.4,1.6c1.7,0.3,3.5,0.4,5.2,0.5
	c0.1-0.5,0.1-1,0.2-1.5c-2.3-0.4-4.7-0.9-7-1.3C412.3,257.1,410.1,256.5,407.8,256.1z M331.9,280.2c-3,5.1-6.1,10.2-9.4,15.8
	c4.4,3.7,10.4,4.2,15.8,7.1c1.1-9.9,3.2-19,2.4-28.6C336.5,275,333.8,277,331.9,280.2z M335.8,296.8c-7-0.4-7.8-1.7-4.9-7
	c1.1-2,2.3-4,3.5-6c0.2-0.4,0.8-0.5,2-1.3C336.8,287.9,336.2,292.4,335.8,296.8z M454.4,338c-2,0.1-4.3-0.2-4.1,2.8
	c0.1,2.2,2,2.9,3.8,3c1.8,0.1,4.3-2.6,4.2-4.5C457.7,337.2,455.9,337.9,454.4,338z M538,519.4c2.5-2.1,6-3.3,6.6-7.7
	C540.7,513.1,539,516,538,519.4z M450.4,467.4c2.6,1.1,4.3,1.8,7.2,3c-1.4-2.6-2.2-4-3.1-5.6C453.2,465.6,452.2,466.2,450.4,467.4z
	 M551.9,468.8c1.2-0.5,2.2-0.9,3.9-1.6C551.9,465,551.9,465,551.9,468.8z M470.4,287.7c-0.7-1.5-1.8-2-4.1-0.5
	c1.3,0.9,2.3,1.5,3.3,2.1C469.9,288.8,470.6,288.1,470.4,287.7z"/>
<path d="M559.8,467.3c0-2.7-1.7-5.5-1.8-8.2c-0.2-7.7,0.3-15.5-2.1-23.1c-0.3-0.8-0.1-1.8-0.2-2.7c-0.9-5.1-1.3-10.3-2.8-15.3
	c-1.6-5.6-3.9-11.1-6.2-16.5c-5.2-12.6-13.5-22.5-25.4-29c-3.8-2.1-8.1-3.2-12.7-4.9c2.3-2.6,4.8-5.2,6.9-8.1
	c2.3-3.2,4.5-6.6,6.1-10.1c1.5-3.4,2.3-7.1,3.5-11.1c4.9-2.8,9.4-6.7,11.9-12.3c2.1-4.9,3.4-10.2,5.5-15.1c2-4.6,2.4-9.7,7-13.4
	c5.1-4.1,4.3-9.9-0.6-13.2c-1-0.7-2.3-0.8-3.5-1.1c-7-1.8-8.8-4-9.2-11.1c0-0.5,0.1-1.1,0-1.6c-0.4-2.1-0.4-4.4-1.3-6.3
	c-3.6-7.4-7.3-14.8-13.1-20.9c-5.7-6-11.2-12.2-16.4-18.7c-4.1-5.1-6.9-10.9-6-17.9c0.9-7.7,1.4-15.4,1.8-23.1
	c0.3-5.8,0.3-11.6,0.6-17.3c0.4-7.5,1.2-15.1,1.6-22.6c0.5-8.3-1-16.5-1.6-24.7c-0.6-8.4-3-16.2-5.5-24c-3-9.3-8.2-17.5-14.1-25.3
	c-14.3-18.8-33-30.9-55.8-36.7c-4.3-1.1-10.4,2.5-10.7,6.9c-0.3,6.7-0.3,13.4,0.4,20c0.7,6.8,2.2,13.5,3.7,20.1
	c2.3,10.3,4,20.8,7.5,30.7c5.5,15.5,12.3,30.5,18.7,45.7c4.1,9.8,6.3,20.2,7.8,30.6c0.4,2.6,0.1,5.2,0.1,7.8
	c-1.9-0.6-2.8-1.3-3.4-2.3c-6.7-10.8-13.3-21.8-20.1-32.6c-6.1-9.6-13.3-18.4-21.2-26.6c-10.9-11.3-23-21.2-36.1-30
	c-15.9-10.6-32.3-20.3-49.1-29.4c-3.7-2-5.3-1.7-7.9,1.6c-2.7,3.5-4.5,7.4-4.6,11.9c-0.1,5.6,0.3,11.1-0.1,16.7
	c-0.6,8.1,2.5,15.3,5.8,22.1c5.1,10.7,12,20.4,20.6,29c9.5,9.5,20,17.7,30.5,26c6.3,5.1,12.6,10.3,18.7,15.5
	c5.1,4.3,5.7,14.7-1,19.5c-1.9,1.4-3.8,2.8-5.7,4.1c-4.5,3-9.5,5.4-13.5,8.9c-8.6,7.4-15.3,16.2-19.3,27c-1.1,3-3.2,5-6.3,6.2
	c-7.3,2.9-14.2,6.3-17.7,14c-0.7,1.4-1.9,2.6-2.9,3.9c-2.9,4-6.9,7.3-7.6,13c-8-2.4-15.5-4.6-23-6.8c-6.5-1.9-13.1-3.8-19.5-5.9
	c-8-2.6-16.4-4.2-23.8-8.7c-4.4-2.7-8.9-5.5-13.5-7.9c-3-1.6-6.2-2.8-9.4-3.9c-2.2-0.8-4.7-0.6-5.9,1.4c-1.5,2.6-4,3.5-6.3,4.8
	c-3,1.7-4.7,3.9-3.9,7.4c0.4,2.1,0,3.7-1.5,5.4c-2.7,3.1-2.5,4.2,0.1,7.5c1,1.4,2.2,2.9,2.5,4.5c0.5,3.1,2.1,4.9,4.8,6
	c2.5,1.1,5,2,7.5,3c13.2,5.1,23.9,14.1,34.5,22.9c9.1,7.6,18.7,13.4,30.9,13.8c7,0.2,12.3,3.7,17,8.4c4.2,4.2,8.3,8.6,12.3,12.9
	c2.3,2.4,3.8,5.3,3.3,8.8c0,0,0.1,0,0.1,0c-1,1.4-2.4,2.7-2.7,4.2c-2.1,10.1-5.8,19.6-10.2,28.8c-8.2,16.9-18.3,32.6-28.9,48.1
	c-0.6,0.9-1.7,1.6-2.8,2.8c-6-8.3-14.6-10.2-23.6-10.7c-4.2-0.2-8.9,0.2-12.7,1.8c-13.7,5.7-23.2,15.5-27.3,30.1
	c-3,10.6,2.3,25.3,13.2,30.3c3,1.4,6.2,2.5,9.5,3.8c-0.6,1-1.1,2-1.7,2.9c-5.9,8.2-11.1,16.8-15.3,26c-5.4,11.9-9.1,24.2-9.1,37.4
	c0,10.8,1.5,21.2,8.2,30.1c3.4,4.5,7.2,8.5,12.5,10.8c4.2,1.8,6.5,5,5.7,9.9c-0.9,5.2-3,9.6-7.7,12.4c-4.9,2.9-10,4.7-15.8,4.5
	c-4.7-0.1-9.4,0.3-14,1c-6.6,1-13.1,2.2-19.6,3.8c-5.8,1.4-11.4,3.5-15.8,7.8c-8,7.9-6.2,16.7,1.5,20.8c0.9,0.5,1.9,1.2,2.5,2
	c3.3,5.2,8.6,6.8,14.2,7.9c1.5,0.3,3.1,0.9,4.1,2c2.1,2.2,4.4,3,7.3,2.9c6.3-0.2,12.6-0.6,18.9-0.5c5.2,0.2,10.1-0.6,14.8-2.4
	c3.9-1.5,7.6-3.4,11.2-5.3c15-7.7,28.6-17.6,40.8-29.1c7.9-7.5,12.9-16.5,11.9-27.8c-0.4-4-0.1-7.9,1.1-11.7
	c2.3-7.2,5.7-13.5,12.9-17.1c10.8-5.5,22.4-7.5,34.4-8.2c8.3-0.5,16.6-1,24.8-1.6c7.7-0.6,15.3-1.3,23.5-2c-0.6,1.3-0.9,2.5-1.6,3.1
	c-4.2,3.9-8.5,7.9-12.9,11.5c-4.1,3.3-8.6,6-11.5,10.5c-4,6.2-2.5,13.6,4.2,16.5c10.3,4.5,20.6,8.9,32.2,9.3
	c6.6,0.2,13.3,1.4,19.7,2.8c7.7,1.7,15.3,4.1,22.9,6.1c10.4,2.8,20.7,5.8,30.5,10.6c5.1,2.5,10.4,4.1,16.1,3.1
	c1.7-0.3,3.6-0.8,4.8-1.9c2.1-1.8,4-2.8,6.8-2.1c1.1,0.3,2.8,0.1,3.7-0.5c4.1-2.9,8.8-3.9,13.3-5.8c7.6-3.1,9.2-12.3,4.7-19.3
	c-2.9-4.4-6.9-7.5-11.7-9.2c-10-3.4-20.1-6.5-30.8-6.8c-1.8-0.1-3.5-0.7-5.3-1c-2.8-0.4-5.7-0.9-8.5-1.1c-4.7-0.3-9.4-0.3-14.1-0.7
	c-2.1-0.2-4.6-0.5-5.9-2.9c5.3-1.7,10.4-3.5,15.5-4.9c13.2-3.6,25.3-9.6,35.8-18.4c7.9-6.6,13.2-15.1,15.7-25.3
	c1.9-7.9,1.1-15.7-1.6-24.1c4.3-0.3,8.2-0.7,12.1-0.8c10.8-0.3,19.9-4.3,27.1-12.4c8.4-9.4,12.7-20.3,12.3-33
	c-0.1-3.8-0.3-7.6,0.1-11.4C558.2,472.3,559.8,469.8,559.8,467.3z M517.4,384.7c5.1,4.3,10.1,8.6,13.7,14.4c1.5,2.4,2,4.8,1.2,7.2
	c-3.2,10.5-10.4,18.2-20,22.8c-8.2,3.9-17.3,5.9-26.7,5c-4.2-0.4-8.6-0.1-12.8-0.1c-0.2-0.5-0.5-1.1-0.7-1.6
	c1.4-1.4,2.8-2.9,4.3-4.4c-3-0.8-3-0.8-7.3,2.4c-2.2,1.7-3.9,4.3-7.9,4.9c0.9-8.4,3.6-15.6,7.7-22.9c2.5,1.4,4.6,2.7,6.8,3.8
	c2.1,1,4.4,1.5,6.5,2.4c11,4.8,21.6,5.5,31.5-2.5c3.8-3.1,5.9-7.5,8.2-11.5c-1.6-2-2.6-1.1-3.7,0c-3.4,3.4-6.7,7-10.3,10.1
	c-3.1,2.6-7.1,2.4-10.9,2.2c-8.7-0.4-16.4-3.8-23.8-7.9c-10.9-6.2-21-13.9-33-18c-5.6-1.9-11.4-3.2-17.2-4.2c-3-0.5-5.4-1.6-7.5-3.7
	c0.8-5.8,5.7-6.7,10.5-8.6c-2.7-2.1-4.9-1.5-7-0.5c-2,1-3.9,1.9-6,0.6c-0.3-6,0.8-7.3,6.3-7.5c2.2-0.1,4.4-0.3,7.7-0.6
	c-3.3-3.7-6.4-3.3-9.5-3c-1.5,0.1-2.9,0.3-5.3,0.5c2.7-7.1,8.3-5.7,13.5-6.6c-2.1-2.7-3.7-4.8-5.5-7.1c3.1-2.1,4.9-1.8,7.1,0.5
	c7.9,8.4,17.6,13.8,28.9,16.5c3.1,0.7,6.2,2,9.3,3c1.4,0.4,2.8,1,4.2,0.9c4.6-0.2,8.9,1.1,13.2,2.2c4.5,1.1,9.2,1.4,13.8,2.4
	C504.2,377.6,511.3,379.7,517.4,384.7z M446,144.6c-5.8-14.2-12.6-28-16.7-42.9c-3.8-13.5-7.1-27-9.2-40.8
	c-0.6-4.1-1.4-8.2-1.9-12.2c-0.2-1.4-0.4-2.9-0.1-4.3c1.6-7.1,2.2-8,9.2-7.4c4.2,0.3,7.9,1.9,11.7,3.5c6.6,2.8,12.9,6.2,18.7,10.4
	c7.9,5.6,15.2,11.9,20.5,20.2c3.3,5.1,7.1,9.9,9.8,15.3c4.5,9,7.4,18.5,9.2,28.6c2.7,14.9,1.5,29.9,1.7,44.8
	c0.1,7.5-1.2,15.1-1.8,22.6c-0.2,3.2-0.2,6.5-0.3,9.7c-0.1,3.2-0.3,6.3-1.5,9.5c-1,2.6,0,6,0.3,9c0.2,1.8,0.9,3.6,0.9,5.6
	c-5.2-4.4-10.3-8.4-16.3-11.2c-2.4-1.2-3.4-2.3-2.3-5.4c1.1-3,0.6-6.6,0.8-9.9c0.3-5.2,0.5-10.4,0.7-15.6
	c0.4-11.8-2.6-23.1-5.8-34.3c-2.2-7.8-5.8-15-9.3-22.3c-2.7-5.8-4.8-12-7.4-17.9c-3.8-8.5-8.1-16.8-11.9-25.3
	c-2.4-5.4-4.4-10.9-6.7-16.4c-0.5-1.2-1.5-2.1-2.2-3.2c-0.7,3.9-0.8,7.1,0.8,10.6c7,15.3,13.6,30.9,20.2,46.4
	c1.4,3.3,2.3,6.8,3,10.3c2.1,10.1,2.7,20.3,3.5,30.5c1,12.7,0.8,25.6,4.1,38c0.9,3.3,1.8,6.5,2.8,10.3h-13.4
	c-0.2-1.2-0.7-2.4-0.4-3.3c3.1-9.6,0.4-18.9-1.5-28.2C453.5,160.5,449.3,152.7,446,144.6z M473.9,192.6c-4.6-18.1-4.1-36.6-5.7-54.9
	C474.7,155.6,477.1,173.8,473.9,192.6z M353.4,253.1c3.9-7.6,8.9-14.4,15.3-20c3.5-3,7.9-5,11.7-7.7c3.6-2.6,7.3-5.3,10.5-8.4
	c5.4-5.1,6.3-15.3-0.3-21.7c-8.2-8-17.1-15.2-26.3-22.2c-6.7-5.1-12.9-10.7-19-16.4c-8.1-7.5-15.3-15.8-20.6-25.4
	c-2.5-4.5-5.4-9.2-6.1-14.8c-0.4-3.3-1.2-6.7-2.4-9.8c-3.3-8.5-1.2-16.7,0.9-24.8c1.3-4.9,3.7-5.3,8-2.6c4.6,2.8,9.4,5.2,14.1,7.8
	c2.8,1.6,5.5,3.3,8.3,5c9.7,6.1,19.7,11.8,29,18.4c7.7,5.5,14.9,11.9,21.9,18.4c6.1,5.7,11.8,11.9,17.2,18.4
	c8.4,10.1,15.9,20.8,22.5,32.2c5.4,9.3,10.8,18.6,16.3,27.8c1.7,2.8,4.8,4.8,5.6,8.3c0.1,0.5,1.3,0.8,3,1.8c-2.1-4.7-3.8-8.3-5.4-12
	c11.9-3.2,30.3,5.6,37.9,17.9c2.3-0.3,4.6-0.3,6.2,2.4c5.1,8.6,12.9,14.9,19.2,22.6c1.8,2.2,3.5,4.5,5.9,7.6
	c-1.7,0.4-2.7,0.8-3.7,0.8c-7.4,0-9.8,1.4-12.4,7.6c12.1-1.8,13-1.7,19.6,4.4c2.5,2.3,3.5,5.2,3.6,9.2c-4.1-1.1-7.6-2.1-11.2-3
	c-4.7-1.2-9.4-2.5-14.1-3.4c-5.1-1-10.3-2-15.4-2.4c-4.3-0.4-8.6-0.3-12.9,0.3c-6.7,0.9-13-0.3-19-3c-2.9-1.3-5.3-3.5-7.8-5.6
	c-4.5-3.8-9.6-6-15.2-7.9c-11.5-4-23.6-4.7-35.3-7.9c-6.5-1.8-13.5-2.1-20.2-3.1c-3.2-0.5-6.3-1.7-9.5-2c-5.7-0.6-8.7,1.5-10.8,6.9
	c-0.3,0.7-0.7,1.3-0.8,2c-0.4,5.3-4.6,6.1-9.2,7.7C353,254.9,353,253.9,353.4,253.1z M485.1,312.2c-0.2,4.9,2,8.5,5.7,10.9
	c3.5,2.3,7.6,3.9,11.6,5.5c2.8,1.1,5.7,1.6,8.5,3.3c-0.9,0.2-1.8,0.6-2.7,0.5c-7.2-0.7-14.1-2.4-20.1-6.8
	c-5.8-4.3-7.3-10.8-9.4-17.1c-2.2-6.9-0.9-13.9,0.1-20.8c0.4-3.1,2.1-5.5,5.1-7.1c4.3-2.4,8.7-1.8,13.2-1.6c0.8,0,1.5,1.2,2.3,1.8
	c-0.1,0.5-0.2,0.9-0.3,1.4c-1.9,0.3-3.7,0.8-5.6,1c-6,0.6-8.2,3-8.3,9.1C485.2,298.9,485.4,305.6,485.1,312.2z M466.3,287.2
	c2.2-1.5,3.4-1,4.1,0.5c0.2,0.4-0.5,1.1-0.8,1.6C468.6,288.7,467.6,288,466.3,287.2z M467.5,297.8c-4.2,1.2-4.9,1-8.4-2.6
	c1-1.9,2.1-3.9,4.8-3.2C466.8,292.7,467.7,295,467.5,297.8z M384.1,294.1c1.5,4.4,5,7,8.7,9.3c3.5,2.1,7.2,3.9,11.2,6
	c-2,2-3.9,1.3-5.3,0.7c-3.9-1.8-7.8-3.7-11.5-5.9c-6.4-3.9-8.9-10.4-9.6-17.4c-0.5-4.6,0.4-9.3,0.8-14c0.3-2.9,0.9-5.7,1.2-8.6
	c0.7-7.1,5.4-10.9,11.3-10.4c4.5,0.4,9-0.4,13.3,1.8c1,0.5,2.5,0.2,3.7,0.5c2.3,0.4,4.5,1,6.7,1.5c2.3,0.5,4.7,0.9,7,1.3
	c-0.1,0.5-0.1,1-0.2,1.5c-1.7-0.2-3.5-0.2-5.2-0.5c-2.8-0.5-5.6-1.1-8.4-1.6c-1.4-0.3-2.8-0.6-4.1-1.1c-5.5-2-11.3-2.2-15.9,1.5
	c-2.3,1.8-2.9,5.9-3.9,9c-0.7,2.4-0.5,5.1-1.2,7.4C380.8,281.6,381.9,287.9,384.1,294.1z M343.9,301.1c0.6-5.7,1.1-11.5,1.6-17.2
	c0.2-2.2,0.3-4.3,0.5-6.5c0.5-4.4,2.1-7.7,7.1-8.9c3.6-0.9,6.8-3.1,10.2-4.5c1.1-0.5,2.3-0.5,3.4-0.7c2.2,4.2-0.1,7.8-0.4,11.4
	c-1.3,14.3,2.4,26.8,12.9,36.6c7.1,6.5,16.3,9,25.5,10.9c7.6,1.6,15.2,2.6,23.1,2.4c1.6-0.1,3.9,1.6,4.6,3c2.5,5.1,6.6,8,11.6,9.7
	c2.2,0.8,2.9,2,2.7,3.9c-0.3,3,1,4.7,3.9,5.5c3,0.8,5.9,2,8.1-1.6c1.3-2.1,3.5-2.7,6-3.1c2.2-0.3,4.3-1.8,6.2-3
	c0.6-0.4,0.6-1.7,1-3.2c-4.1,1-7.8,3.6-11.1,0.2c-3.3-3.3,1.7-5.8,0.7-8c3.5-2.3,6.3-4.1,9-6.1c0.8-0.6,1.4-2.2,1.3-3.3
	c-0.2-5.8-7.5-10.1-12.8-7.6c-1.8,0.8-3.6,1.5-6.2,2.5c1.3,2,2.3,3.6,3.4,5.1c2.4,3.5,3.2,7.1,1.7,11.2c-1.1,3.1-2.5,4.4-5.7,4.7
	c-6.7,0.8-15.9-3.7-18.1-12.3c9.9-4.7,17.8-11.7,22-22.4c8.8,2.5,16,6,20.3,14c4.2,7.7,3.1,15.3,0.9,23.3c1.5-1.4,3-2.8,4.4-4.1
	c6.7,1.6,11.7,6.7,18.7,7c6.6,0.3,13.1,0.7,20,1.2c-3.9,11.3-9.2,21.4-21.4,25.8c-1.2,0.4-2.2,1.1-3.3,1.8
	c-4.4,2.6-8.6,2.5-13.3,0.2c-3.1-1.5-6.9-2-10.4-2.3c-4.6-0.4-8.7-1.9-13.2-3.8c2.1-2.6,4-4.9,6.1-7.4c-2.7-1.2-3.9,0.4-5.2,1.4
	c-4.9,3.9-9.6,4.3-15.5,1.3c-6-3-10.6-7.4-15.1-12c-2.1-2.1-5.7-3.2-8.7-2.3c-2.7,0.8-3.2,3.2-3.7,5.5c-0.3,1.2-0.2,2.5-0.2,3.6
	c-2.9,1.8-5.6,3.6-8.5,5.4c-0.3,2.3-0.5,4.5-0.8,7.2c-5.5-1.8-9.2-5.5-12.5-9.4c-3.4-3.9-5.7-8.6-8.8-12.8
	c-4-5.5-7.8-11.2-12.3-16.2c-7.5-8.3-16.2-15.2-26.4-20.1C344.9,306,343.6,304.2,343.9,301.1z M450.2,340.8c-0.2-3,2.2-2.8,4.1-2.8
	c1.5-0.1,3.4-0.8,3.9,1.4c0.1,1.9-2.4,4.6-4.2,4.5C452.2,343.7,450.4,343,450.2,340.8z M331.9,280.2c1.9-3.2,4.6-5.3,8.8-5.8
	c0.7,9.6-1.3,18.7-2.4,28.6c-5.4-2.9-11.3-3.3-15.8-7.1C325.8,290.4,328.9,285.3,331.9,280.2z M211.5,285c-1.6-0.4-2.4-1.9-1.6-3.3
	c0.5-0.8,2-1.5,2.9-1.4c2.3,0.3,4.4,1.1,6.8,1.7c0.8,2.2,0.6,3.9-2.3,3.8C215.3,285.7,213.3,285.5,211.5,285z M213.6,291.8
	c1.9-1.7,4-0.7,6.5-1.2c0.1,1.8,0.1,2.8,0.2,4.3C217.8,294.1,215.1,294.8,213.6,291.8z M222.1,277.1c-0.4,0.6-1.9,0.8-2.8,0.6
	c-1.5-0.4-3-1.3-4.4-2c-2-1-2.8-2.7-1.8-5.5c1.4,0.2,3,0.1,4.3,0.7c1.7,0.8,3.4,2,4.8,3.4C222.7,274.7,222.6,276.4,222.1,277.1z
	 M232.3,495.2c-1.3-3-1.7-6.4-2.5-9.7c-1.8,0.1-1.9,0.1-2.1,3.2c-0.2,1.8-0.3,3.6-1,5.5c-3.5-6.3-3.8-12.7-0.8-19.5
	c-3,4.1-6,8-6.1,13.2c-1.5-5.9,0-11.5,2.5-16.4c2.5-4.8,6.7-8.8,10.2-13.1c-2.2-1.6-3.6-0.6-5.1,0.6c-6.4,5-9.6,11.8-12.1,19.4
	c-0.9-5.8,1.4-11.2,4.5-15.6c6.4-9.1,14.7-16.3,26.4-18c6-0.9,11.7,0.7,17.3,2.7c3.8,1.3,7.2,3.2,8.7,7.2
	c-5.8,8-11.5,15.9-17.4,23.8c-4.6,6.2-9.5,12.2-14.3,18.2C238.3,499.1,233.7,498.5,232.3,495.2z M286.1,606.1
	c-3,5.4-4.2,11.1-3.8,17.2c0.7,8.7-2.4,16-8.3,22c-9.1,9.4-19.3,17.6-30.8,23.9c-6.9,3.8-13.7,7.8-20.9,10.7c-5.1,2-10.8,2.5-16.4,3
	c-5.4,0.5-10.8,0.2-16.3,0.1c-4-0.1-5.3-1.2-5.4-5.2c-0.1-5.3,2.2-9.4,6.7-12.2c5.8-3.6,11.8-3.7,18.2-1.7c2.7,0.9,5.6,1.2,8.4,1.5
	c0.7,0.1,1.6-0.5,3.1-1.1c-1.3-1.4-2-2.9-3.1-3.3c-6.8-2.3-13.8-4-21.2-3c-7.4,1-15.7,8.8-17.4,16.4c-1,4.3-3.1,5.2-6.8,2.7
	c-1.9-1.3-3.5-3-5.2-4.6c3.9-11.7,14-14.6,24.3-18.2c-3.2-2.5-5.8-1.5-8-0.9c-6.2,1.6-11.7,4.6-16.1,9.3c-1.4,1.5-2.3,3.6-3.4,5.4
	c-0.9,1.5-2.4,1.5-3.3,0c-2.2-3.5-1.5-7.4,0.6-10.2c2-2.8,4.7-5.4,8.5-6.1c2.3-0.4,4.4-1.5,6.6-2.4c6.9-2.8,14.2-2.2,21.3-3
	c6.8-0.7,13.7-0.9,20.5-1.8c11.9-1.6,19.8-10.7,20.9-22.5c0.1-1.2,0.4-2.4,0.8-4.1c17.7,1.7,32.6-4.8,46.9-15.8
	C286.3,604.5,286.5,605.4,286.1,606.1z M371.5,579.7c-12,1.5-24.1,1.1-36.1,2.5c-8.2,1-16.4,2.1-24.4,4.1c-4.9,1.2-9.5,4.3-14.1,6.6
	c-1.7,0.8-3.1,2.3-5.3,0.7c-1.5-1.1-3,0.2-4.1,1.5c-5.9,7.4-14,11.9-22.6,15.1c-10.3,3.9-21,3.9-31.2,0c-6.3-2.4-12.7-6-14.7-13.7
	c-0.3-1-1-1.9-1.6-2.8c-1.7-2.8-2.3-5.9-2.8-9.2c-1.3-8.3-0.9-16.6,0.3-24.7c0.8-5.6,2.3-11.2,4.1-16.6c1.6-4.9,3.9-9.7,6.2-14.3
	c7.3-14.6,17.3-27.2,27.7-39.7c5.1-6.1,9.9-12.4,14.4-18.9c5.3-7.6,10.2-15.5,15.4-23.2c2.5-3.7,5.1-7.4,7.7-11
	c9.4-13,16.8-27.3,22.9-42c3.2-7.8,6-15.9,5.8-24.5c0-0.9-0.2-1.7-0.3-2.6c3.2-2,5.5-0.1,7.9,1.8c3.3,2.6,4.6,3,9,2.8
	c-0.6-1-1-2.1-1.7-2.7c-4.6-4-9.4-7.8-14-11.8c-1.6-1.4-2.8-3.2-4.3-4.8c-5.1-5.2-10-10.8-15.6-15.4c-2.9-2.3-7.1-3.3-10.9-4.2
	c-4.9-1.2-10-1.3-14.9-2.6c-2.9-0.8-5.5-2.6-8-4.4c-8.1-5.9-15.8-12.3-24-18c-5.1-3.6-10.8-6.2-16.3-9.4c-1.2-0.7-2.4-1.6-3.4-2.2
	c0.5-5.2,0.9-10.1,1.4-15.4c3.7,0.4,3.4,2.9,3.6,5.2c0.3,3.9,2.7,6.9,6.2,7.8c0.7,0.2,1.9,0,2.3-0.5c0.4-0.5,0.5-1.7,0.2-2.5
	c-0.3-0.8-1.3-1.3-1.6-2c-0.9-2.1-2.3-4.3-2.3-6.5c-0.1-5.4-2.4-9.1-6.8-12c-1.5-1-2.5-2.7-4.4-4.8c5.4-0.3,8.6,2.1,11.9,3.9
	c6.5,3.5,12.5,7.8,19.2,10.8c5.8,2.6,12.2,3.9,18.4,5.8c2.2,0.7,4.5,1.2,6.7,1.8c8.8,2.5,17.6,4.8,26.3,7.6
	c7.2,2.2,14.2,4.9,21.3,7.4c5.2,1.9,10.4,3.7,15.4,5.9c3.4,1.5,6.8,3.3,9.9,5.3c8.5,5.4,16,11.9,22.5,19.8
	c5.7,6.9,10,14.3,13.3,22.5c0.9,2.3,1.9,5.8,6,5.6c0.9,0,2,1.4,3,2.2c1.9,1.4,3.6,3.2,5.6,4.2c6.3,2.9,8.6,8,9.5,14.6
	c0.3,2.4,2.8,5,5,6.6c2.2,1.6,5.3,2.6,8,2.7c7.6,0.1,14.5,2.3,21,6.1c4.7,2.7,9.4,5.2,14.4,8c-1.2,2.8-2.3,5-3.2,7.3
	c-5.2,14.1-6.1,28.8-5.6,43.6c0.1,2.9-0.1,5.2-2.4,7.2c-0.8,0.7-1.8,2.4-1.5,3.2c2.4,5.8,0.4,11.8,0.9,17.6
	c0.7,9.8,2.3,19.3,8.2,27.4c4,5.6,3.6,11.2,1.4,17.3c-1.9,5.1-3.8,9.9-6.9,14.5c-6.5,9.5-14.8,16.6-24.9,21.8
	c-7.9,4.1-16.1,7-24.8,8.9C390.7,577.3,381.1,578.5,371.5,579.7z M457.5,470.4c-2.8-1.2-4.6-1.9-7.2-3c1.9-1.2,2.8-1.8,4-2.6
	C455.3,466.4,456.1,467.8,457.5,470.4z M504,553.5c-2,11.8-8.9,20-17.3,27.5c-0.8,0.7-1.7,1.4-2.6,1.9c-8.9,5.5-18.3,10.2-28.4,12.8
	c-8.5,2.2-16.7,5.6-25.6,6.5c-5.8,0.5-11.5,2.9-17.2,4.5c-0.7,0.2-1.3,1.1-1.9,1.6c1.1,2.7,2.9,2.5,5,2.1c5.4-1.2,10.9-2.2,16.4-3.3
	c2.9-0.6,5.3,0,7.2,2.5c0.7,0.9,2,1.7,3.1,1.8c11.6,1.6,23.2,2.9,34.8,4.5c4.3,0.6,8.6,1.1,12.7,2.3c6.1,1.8,12.7,2.6,18.1,6.7
	c3.9,2.9,6.8,6.2,6.2,11.6c-0.5,4.5-2,5.9-7.5,5.7c-2.6-6.5-4-14.1-11.1-18c-2.3-1.3-2.3-1.3-5.2-1.1c1.8,2.2,3.3,4.4,5.1,6.3
	c3.6,3.9,5,8.6,5.5,13.7c0.3,2.4-1,3.7-3.1,4.4c-4,1.3-7.1-0.9-8.1-4.9c-1.3-5.2-3.6-9.9-7.6-13.9c-2.8-2.8-6-4.5-9.3-6.2
	c-0.9-0.4-2-0.4-3.9-0.8c0.8,1.5,1,2.7,1.7,3.1c5.1,2.8,9,6.7,11.6,11.7c2,3.8,3.1,8,4.2,12.1c0.6,2.6-1.8,3.6-3.8,3.5
	c-3.4-0.1-7.2-0.1-10.1-1.5c-8.1-4-16.3-7.4-24.9-10.1c-8.7-2.7-17.5-5.1-26.4-7.3c-6.6-1.6-13.4-3.6-20.1-3.8
	c-9.2-0.3-17.6-3.4-26.3-5.4c-3.8-0.9-7.4-2.9-10.9-4.7c-3.3-1.8-4.1-5.3-1.5-8.2c2.8-3.2,5.9-6.3,9.5-8.6
	c6.9-4.5,12.1-10.7,17.6-16.6c3.1-3.3,6.2-5.9,11-5.9c1.2,0,2.6-0.2,3.7-0.6c10.8-3.8,21.8-7.5,31.3-14.1
	c10.3-7.2,18.6-16.4,22.8-28.6c1.4-4,2.6-8.2,4-12.9c2.4,1.2,4.7,1.9,6.5,3.2c5.7,4.1,12.1,5.5,18.9,5.3c3.1-0.1,6.1-0.1,9.2-0.3
	c3-0.1,4.8,0.9,5.6,3.7c0.5,1.7,1.4,3.5,1.2,5.2C504,545,504.7,549.1,504,553.5z M465,461.7c1.7-3.9,3.8-7.7,6.4-11.1
	c2.7-3.7,10-3.5,13,0c1.2,1.4,2.3,3.2,0.9,4.9c-3.1,3.5-3.3,7.7-3.6,12.6c-2,0.1-3.9,0.3-5.7,0.2c-2.3-0.1-4.6-0.3-7-0.5
	C464.7,467.2,463.3,465.5,465,461.7z M512.2,467.7c-0.4,0.7-2.2,0.8-3.3,0.6c-1.4-0.2-2.7-1-4.2-1.6c-5.6,4.1-12,0.4-18.1,2.2
	c-1.4-4.5-1.2-8.6,2.4-10.7c3.8-2.3,8-5.3,12.9-1.5c2.6,2,6.7,1.4,8.8,4.6c0.6,0.9,1.8,1.5,2,2.5C512.9,465,512.9,466.7,512.2,467.7
	z M525.6,468.2c-2.3,0-4.6,0-7.5,0c-1.8-3.5,0.4-6.4,1.7-9.2c1.5-3,3.5-5.9,5.6-8.5c4.5-5.5,10.7-5.1,13.8,1.3
	c1.8,3.6,2.5,7.8,3.3,11.9c0.4,2-0.7,3.5-2.9,3.8c-2.1,0.3-4.3,0.5-6.4,0.6C530.7,468.3,528.1,468.2,525.6,468.2z M538,519.4
	c1-3.5,2.6-6.3,6.6-7.7C544,516.1,540.5,517.4,538,519.4z M545.5,456.6c-1.2-2.5-2.2-5.1-3.7-7.4c-4.5-7.5-12.3-7.5-17-3.2
	c-2.7,2.6-5.1,5.6-7.4,8.5c-2.1,2.6-2.9,2.9-5.7,1.3c-1.9-1-3.6-2.3-5.5-3.3c-5.3-2.9-11-2.9-16.5-1.4c-2.4-2.1-4.5-4.4-7.1-5.9
	c-4.7-2.8-9.5-2-13.1,2.1c-2.3,2.7-4,5.9-6,8.9c-0.6,1-1.2,2-1.8,2.9c-0.5-0.2-1-0.3-1.4-0.5c0-3.9-0.6-7.9,0.2-11.7
	c0.5-2.6,2.9-4.8,4.5-7.2c2-3,4.6-1.6,7.3-1.2c9.5,1.1,18.9,1.1,28.5-0.8c9.7-1.9,17.9-6.1,25.2-12.5c4-3.5,6.9-7.7,8.8-12.7
	c0.3-0.9,0.8-1.8,1.5-3.6c1.3,2.3,2.5,3.7,2.8,5.3c2.2,9.2,5.8,18.1,5.6,27.8c-0.1,3.3,1.2,6.7,1.7,10.1
	C546.6,453.7,546.4,455.2,545.5,456.6z M551.9,468.8c0-3.7,0-3.7,3.9-1.6C554.1,467.9,553,468.3,551.9,468.8z M416.2,208.9
	c2.9-0.9,3.6-3.6,3.8-6.1c0.6-10.3,0.4-20.6-2.5-30.6c-4.1-13.9-10.7-26.6-20.1-37.8c-12.1-14.5-26.9-25.7-43.4-34.7
	c-8.6-4.7-17.7-8.5-26.9-12c-0.4-0.1-0.9,0.1-2.5,0.4c2,1.4,3.2,2.4,4.5,3c9.9,5,20.1,9.5,29.6,15.3c19.7,12.1,35.5,27.7,46.7,48.1
	c8.1,14.9,9.7,30.9,9.8,47.4c0,0.2-0.4,0.5-1.2,1.3c-1.3-1-2.6-2.1-3.9-3.2c-7-5.9-13.9-11.9-20.9-17.8c-1.6-1.3-3.2-2.9-6.3-2
	c2.1,2.4,3.9,4.6,5.9,6.5c6.9,6.5,14,12.9,20.9,19.5C411.6,208.4,413.5,209.8,416.2,208.9z M415.5,237c1.1,0.4,1.7,0.9,2.4,0.9
	c7.1,0.5,13.6,2.6,19.9,5.9c2.3,1.2,5.1,1.5,7.8,1.7c1.2,0.1,2.9-0.6,3.7-1.5c2-2.5,0.7-7.4-2-9.2c-6.9-4.6-14.7-4.3-22.4-3.3
	C421.7,231.9,417.7,232.6,415.5,237z M483.8,250.5c2.5,2.1,4.5,1.7,6.4-0.9c1.9-2.6,2.2-5.5,1.7-8.6c-1-5.4-2-10.8-3-16.2
	c-1.4-1.7-2.8-3.5-4.5-5.1c-2.9-2.9-5.8-5.8-8.9-8.4c-0.6-0.5-2-0.2-3-0.2c-0.2,0.3-0.5,0.7-0.7,1c9.9,9.3,16.8,19.8,15.1,35
	c-9.1-5.9-12.6-15-19-22.4c-0.1,0.8-0.6,1.7-0.4,2.4C470.7,236.4,476.3,244.2,483.8,250.5z"/>
<path class="st1" d="M386.2,343.7c-2.2-5.5-4.7-10.3-9.1-12.5c3.2,4,6,8.2,9,12.3C386.1,343.6,386.2,343.6,386.2,343.7z
	 M415.5,383.1c0,0,0,0.1,0,0.1c0.2,0.2,0.4,0.3,0.6,0.5C415.9,383.5,415.7,383.3,415.5,383.1z M463.6,403.3
	c-0.9-0.9-2.2-1.6-3.5-2.2C461.2,401.9,462.4,402.6,463.6,403.3z M459,406.2c-5-2.8-9.7-5.3-14.4-8c-6.5-3.8-13.4-5.9-21-6.1
	c-2.7,0-5.8-1.1-8-2.7c-2.2-1.5-4.6-4.2-5-6.6c-0.9-6.6-3.1-11.7-9.5-14.6c-2.1-1-3.8-2.8-5.6-4.2c-1-0.8-2-2.3-3-2.2
	c-4.1,0.2-5.1-3.3-6-5.6c-3.3-8.2-7.6-15.7-13.3-22.5c-0.1-0.1-0.1-0.1-0.2-0.2c-1.8,9.5,0.4,22.2-0.7,31.9
	c-1.4,12.7-4.2,25.3-8.3,37.4c0.1-5.4-0.6-10.9-2.3-16.1c2.4,35.8-6.9,72.3-26.2,102.5c-0.1-5.8-0.2-11.7-0.2-17.5
	c-4.3,24.2-17.7,45.5-29.2,67.3c-9.1,17.3-17.2,36.2-18.2,55.5c1-1.1,2.2-1.9,3.5-0.9c2.2,1.6,3.6,0.2,5.3-0.7
	c4.7-2.3,9.2-5.3,14.1-6.6c8-2,16.2-3.2,24.4-4.1c12-1.4,24.1-1,36.1-2.5c9.7-1.2,19.2-2.4,28.7-4.6c8.7-2,16.9-4.8,24.8-8.9
	c10.1-5.2,18.4-12.4,24.9-21.8c3.1-4.5,5-9.4,6.9-14.5c2.3-6.1,2.6-11.7-1.4-17.3c-5.9-8.2-7.5-17.6-8.2-27.4
	c-0.4-5.9,1.5-11.8-0.9-17.6c-0.3-0.8,0.7-2.5,1.5-3.2c2.3-2,2.5-4.3,2.4-7.2c-0.5-14.8,0.4-29.5,5.6-43.6
	C456.7,411.2,457.8,409,459,406.2z M476.6,314c-4.3-8-11.5-11.4-20.3-14c-4.2,10.7-12.2,17.7-22,22.4c2.2,8.5,11.4,13.1,18.1,12.3
	c3.2-0.4,4.6-1.7,5.7-4.7c1.5-4.1,0.8-7.8-1.7-11.2c-1.1-1.6-2.1-3.2-3.4-5.1c2.6-1.1,4.5-1.7,6.2-2.5c5.3-2.4,12.6,1.9,12.8,7.6
	c0,1.1-0.5,2.6-1.3,3.3c-2.6,2.1-5.5,3.8-9,6.1c1,2.2-4,4.7-0.7,8c3.3,3.3,7,0.8,11.1-0.2c-0.4,1.5-0.4,2.8-1,3.2
	c-1.9,1.2-4,2.7-6.2,3c-2.5,0.4-4.7,1-6,3.1c-2.2,3.5-5.1,2.3-8.1,1.6c-3-0.8-4.2-2.5-3.9-5.5c0.2-2-0.5-3.2-2.7-3.9
	c-5-1.7-9.2-4.6-11.6-9.7c-0.4-0.9-1.5-1.9-2.7-2.5c-2.2,6.4-2.6,13.6,0.1,19.8c0.8,1.9,1.9,3.6,3.1,5.1c3.4,3.2,7,6.1,11.4,8.3
	c5.9,3,10.6,2.5,15.5-1.3c1-0.8,2-1.9,3.6-1.8c4.2-4.1,7.9-8.8,11.4-13.5c1.3-1.8,2.7-3.6,3.9-5.6c-0.4,0.4-0.9,0.8-1.3,1.2
	C479.7,329.3,480.8,321.7,476.6,314z"/>
<path class="st2" d="M468.2,137.8c1.6,18.3,1.1,36.8,5.7,54.9C477.1,173.8,474.7,155.6,468.2,137.8z M358.7,106.6
	c-9.5-5.8-19.7-10.3-29.6-15.3c-1.2-0.6-2.3-1.5-4-2.7c-0.9,0-1.7,0.4-2.4,1.5c-1.3,1.9-0.9,4.4-0.5,6.7c1.1,6.1,2.3,12.1,4.2,18
	c5.7,17.7,17.3,33.4,32.5,44.1c5.6,3.9,11.6,7.2,16.9,11.5c3.6,3,6.8,6.4,10,9.9c1.4,0.3,2.4,1.3,3.4,2.1c7,5.9,14,11.9,20.9,17.8
	c1.3,1.1,2.6,2.1,3.9,3.2c0.7-0.8,1.2-1,1.2-1.3c-0.1-16.4-1.6-32.5-9.8-47.4C394.2,134.3,378.4,118.7,358.7,106.6z M474.9,144.1
	c-1.1-11.5-3.3-23-5.5-34.4c-2.1-10.8-4.3-21.7-9.2-31.6c-3.7-7.4-12.6-20.5-21.9-20.5c0,0,0,0,0,0.1c2.3,5.4,4.3,11,6.7,16.4
	c3.8,8.5,8.1,16.8,11.9,25.3c2.7,5.9,4.7,12,7.4,17.9c3.4,7.3,7,14.5,9.3,22.3C474,141,474.4,142.5,474.9,144.1z"/>
<path class="st3" d="M546.3,407.9c-3.5-9-8.1-17.8-14.8-24.9c-6.6-7.1-15.5-12.4-25.2-13.4c-3.1-0.3-6.6,1.3-8.2,4
	c6,0.7,11.8,2.8,16.7,6.2c2.7,1.8,5.1,4,7.5,6.1c2.2,1.9,4.5,3.5,6.4,5.8c3.8,4.4,6.2,9.8,8.5,15.1c0.4,0.9,0.8,1.8,1.2,2.8
	c2.6,5.9,5.1,11.9,6.7,18.1c2,7.5,2.5,15.4,3.3,23.1c0.5,5,0.8,10.6-2.5,14.3c-2.4,2.7-6,3.8-9.5,4.4c-4.8,0.8-9.8,1-14.7,1.2
	c-18.5,0.6-37.1,0.9-55.3-2.5c-1.3-0.2-2.6-0.5-3.6-1.3c-0.9-0.7-1.4-1.7-1.9-2.7c-1.7-3.5-3.1-7.2-3.5-11
	c-0.5-4.3,0.2-8.6,0.9-12.8c0.7-4,1.3-8.1,2-12.1c0.7-4.3,1.5-8.9,4.3-12.3c0.7-0.8,1.5-1.6,1.8-2.6c0.7-2.1-1.3-4.7-3.6-4.4
	c-2.3,0.3-3.6,2.6-4.5,4.7c-5.7,13.5-7,28.5-6.4,43.1c0.1,1.6,0.2,3.3,1.3,4.5c0.6,0.7,1.4,1.1,2.1,1.8c0.7,0.8,1.1,1.8,1.6,2.7
	c1.9,3.1,5.9,4.3,9.5,5.1c27,5.7,55.1,2.9,82.3-1.8c0.9-0.2,2.2-0.2,2.5,0.7c0.5,1.2-1.2,2-2.5,2.2c-13.2,1.5-26.5,2.6-39.8,3.5
	c-5.4,0.3-10.9,0.6-16.3,0.6c-5.8-0.1-11.7-0.6-17.5-1.2l-11.5-1.1c-3.4-0.3-6.9-0.7-10.1-2c-1.3-0.6-2.6-1.4-4.1-1.5
	c0.1,0.7,0.4,1.3,0.4,2c0.7,11.1,1.4,22.3,5.5,32.6c4.1,10.3,12.2,19.7,22.9,22.3c4.2,1,8.5,1,12.9,1c17-0.2,35-1,49.1-10.5
	c3.2-2.2,6.2-4.8,8.4-8c5.2-7.5,5.8-17.1,6.2-26.2c0.2-4.8,0.4-9.7,0.6-14.5c0.1-2.6,0.2-5.2,0.3-7.8
	C556.2,442.8,552.9,424.7,546.3,407.9z"/>
<path class="st4" d="M543,285.3c-20.7-9-43.6-13.1-66.2-11.8c-5.6,0.3-11.4,0.9-16.6-1.1c-7.9-3.1-12.5-11.7-20.1-15.6
	c-3.4-1.7-7.1-2.5-10.8-3.2c-18.4-3.5-36.8-7.2-55.3-10.5c-2-0.3-4.2-0.3-5.6,1.1c-1.7,1.7-1.4,4.6-2.2,6.9
	c-1.4,3.7-5.5,5.4-9.2,6.8c-7,2.7-13.9,5.7-20.7,9c-1.7,0.8-3.4,1.7-4.8,3c-1.3,1.1-2.3,2.4-3.3,3.7c-2.3,3-4.5,5.9-6.8,8.9
	c-2,2.6-4,5.2-5.2,8.2c-0.3,0.8-0.6,1.8-0.3,2.6c0.5,1.5,2.7,1.9,4.1,1.1c1.4-0.8,2.3-2.3,3-3.7c1.7-3.2,3.4-6.3,5-9.5
	c1.2-2.2,2.4-4.5,4.2-6.1c4.2-3.8,10.5-4.8,15.3-7.8c5.6-3.5,12.7-4.9,19.1-6.5c1.1-0.3,2.5-0.5,3.2,0.4c0.3,0.4,0.4,1,0.4,1.5
	c0.6,6.9-2,13.8-1.5,20.7c0.3,3.3,1.3,6.5,2.2,9.6c1.3,4.1,2.6,8.4,5.3,11.8c4.1,5.3,11.9,8.4,17.9,11c7.2,3.1,15,5,22.8,5.5
	c7.5,0.5,15.5-0.5,21.7-4.8c5.7-3.9,9.3-10.1,12.3-16.3c1.4-2.8,2.7-5.6,4.7-7.9c2-2.3,5-4,8.1-3.8c3,0.2,5.6,2.3,7.3,4.8
	c1.7,2.5,2.5,5.5,3.5,8.3c2.4,7.7,5.3,15.3,8.5,22.7c1.1,2.6,2.4,5.4,4.6,7.2c2.3,2,5.5,2.8,8.5,3.4c5.8,1.2,11.8,1.7,17.8,1.7
	c3.5,0,7.1-0.2,10.3-1.6c7-3.1,10.5-10.8,12.6-18.1c2.1-7.3,3.7-15.2,8.9-20.8c1.3-1.4,2.8-2.7,3-4.6
	C549,288.7,545.8,286.6,543,285.3z M439.6,296.6c-1.5,6.1-5.3,12-11.2,14.4c-2.6,1.1-5.6,1.4-8.4,1.4c-5.5-0.1-10.8-1.4-16-3.1
	c0,0,0,0,0,0c-2,2-3.9,1.3-5.3,0.7c-3.9-1.8-7.8-3.7-11.5-5.9c-6.4-3.9-8.9-10.4-9.6-17.4c-0.5-4.6,0.4-9.3,0.8-14
	c0.3-2.9,0.9-5.7,1.2-8.6c0.7-7.1,5.4-10.9,11.3-10.4c2.5,0.2,5.1,0.1,7.6,0.3c-0.1,0-0.2,0-0.3,0c0.1,0,0.2,0,0.3,0
	c0.3,0,0.6,0.1,1,0.1c3.5,0.4,7.3,1.2,11.2,2.5c1.3,0.3,2.6,0.6,3.9,0.9c2.3,0.5,4.7,0.9,7,1.3c-0.1,0.5-0.1,1-0.2,1.5
	c-1.7-0.2-3.5-0.2-5.2-0.5c1.5,0.2,2.9,0.3,4.4,0.5c4.1,1.7,7.9,3.3,10.9,4.7c2.4,1,4.9,2.3,6.4,4.4c1.7,2.4,2,5.5,2.2,8.4
	C440.7,284.1,441.1,290.5,439.6,296.6z M469.6,289.3c-1-0.6-2-1.3-3.3-2.1c2.2-1.5,3.4-1,4.1,0.5
	C470.6,288.1,469.9,288.8,469.6,289.3z M525.7,322.9c-2.1,4.2-5.2,8.5-9.8,9.4c-1.9,0.4-3.7,0.2-5.5-0.2c-0.7,0.2-1.4,0.4-2.1,0.4
	c-7.2-0.7-14.1-2.4-20.1-6.8c-5.8-4.3-7.3-10.8-9.4-17.1c-2.2-6.9-0.9-13.9,0.1-20.8c0.4-3.1,2.1-5.5,5.1-7.1
	c4.3-2.4,8.7-1.8,13.2-1.6c0.5,0,1,0.5,1.5,1c8.3-0.3,17.4,1.5,21.9,3.4c3.2,1.3,6.4,3.2,7.9,6.2c0.5,1,0.8,2.2,1,3.3
	C531.5,303.1,530.1,313.8,525.7,322.9z"/>
<path class="st5" d="M510.7,463.5c1.2,0,1.9,0.8,2.1,1.7c0-0.5,0-1-0.1-1.4c-0.2-0.9-1.4-1.6-2-2.5c-2.1-3.2-6.2-2.6-8.8-4.6
	c-4.9-3.7-9.1-0.7-12.9,1.5c-3.6,2.1-3.7,6.2-2.4,10.7c2.9-0.9,5.9-0.4,8.8-0.2c-2.3-0.6-2.1-4.4,0.6-4.4c2.8,0,2.9,4.1,0.3,4.5
	c2.9,0.1,5.7,0,8.4-2c1.5,0.6,2.8,1.4,4.2,1.6c1.1,0.2,2.9,0,3.3-0.6c0.2-0.3,0.3-0.6,0.4-0.9c-0.3,0.7-0.9,1.2-1.9,1.2
	C507.8,468,507.8,463.5,510.7,463.5z M492.2,464.2c-2.9,0-2.9-4.5,0-4.5C495.1,459.7,495.1,464.2,492.2,464.2z M497.9,462
	c-2.9,0-2.9-4.5,0-4.5C500.8,457.4,500.8,462,497.9,462z M503.9,465.4c-2.9,0-2.9-4.5,0-4.5C506.8,460.8,506.8,465.4,503.9,465.4z
	 M470.5,458.4c4.4-2.4,8.7-4.8,13.1-7.3c0.3-0.2,0.6-0.4,0.7-0.7c-1.1-1.2-2.7-2.1-4.5-2.4c-3.6,2-7.1,4-10.7,5.9
	c-0.6,1-1.3,2.1-1.8,3.2C467.7,458.3,469,459.2,470.5,458.4z M538.8,452.9c0.3-0.1,0.5-0.2,0.7-0.3c-0.1-0.2-0.2-0.5-0.3-0.8
	c-0.6-1.3-1.4-2.4-2.3-3.2c-3.2,0.7-6.3,0.6-9.4-0.2c-0.7,0.6-1.4,1.2-2.1,2.1c-0.4,0.5-0.9,1.1-1.3,1.7c0,0,0,0,0.1,0
	C528.9,453.9,533.9,454.1,538.8,452.9z M467.2,464.5c-1.1,0.4-1.5,1.3-1.5,2.2c0.8,0.5,1.9,0.8,3.4,0.9c0.7,0.1,1.3,0.1,2,0.2
	c3.8-1.5,7.5-3.1,11.1-5.1c0.3-2.3,1-4.4,2.3-6.2c-0.3,0-0.7,0.1-1,0.3C478.3,459.9,472.9,462.5,467.2,464.5z M540.7,455.7
	c-0.3-0.1-0.7-0.1-1.1,0.1c-6,2.3-12,2.2-17.9-0.1c-0.7,1.1-1.3,2.2-1.9,3.3c-0.1,0.2-0.2,0.3-0.3,0.5c0.2,0.2,0.5,0.4,0.8,0.5
	c6.6,2.7,13.8,2.8,20.5,0.2c0.4-0.1,0.7-0.4,0.9-0.6C541.4,458.3,541,457,540.7,455.7z"/>
<path class="st6" d="M479.8,448c-3.1-0.6-6.7,0.1-8.4,2.5c-1.5,2.1-2.9,4.3-4.1,6.6c0.6-1.1,1.2-2.1,1.8-3.2
	C472.7,452,476.2,450,479.8,448z M479.8,448C479.8,448,479.8,448,479.8,448C479.8,448,479.8,448,479.8,448
	C479.8,448,479.8,448,479.8,448z M539.6,455.8c0.4-0.2,0.8-0.2,1.1-0.1c-0.4-1.3-0.9-2.6-1.5-3.9c0.1,0.2,0.2,0.5,0.3,0.8
	c-0.2,0.1-0.4,0.3-0.7,0.3c-4.9,1.2-9.9,1-14.7-0.7c0,0,0,0,0,0c-0.9,1.1-1.7,2.3-2.4,3.5C527.6,458.1,533.6,458.1,539.6,455.8z
	 M476,468.2c1.9,0.1,3.7-0.1,5.7-0.2c0.1-1.8,0.2-3.6,0.5-5.3c-3.6,2-7.3,3.7-11.1,5.1C472.7,468,474.3,468.1,476,468.2z
	 M524.1,452.2C524.1,452.2,524.1,452.2,524.1,452.2c0.5-0.5,0.9-1.1,1.3-1.7C524.9,451.1,524.5,451.6,524.1,452.2z M527.5,448.5
	c-0.3,0.3-0.7,0.6-1,0.9C526.8,449,527.2,448.7,527.5,448.5C527.5,448.5,527.5,448.5,527.5,448.5z M521.6,455.7
	c-0.3,0.5-0.6,1-0.9,1.5C521,456.7,521.3,456.2,521.6,455.7C521.6,455.7,521.6,455.7,521.6,455.7z M536.9,448.7
	c-2.7-2.6-6.3-2.6-9.4-0.2C530.6,449.3,533.7,449.3,536.9,448.7z M510.7,463.5c-2.9,0-2.9,4.5,0,4.5
	C513.6,468,513.6,463.5,510.7,463.5z M540.7,455.7c0.4,1.3,0.7,2.6,1,3.9c0,0,0,0,0,0C541.4,458.3,541,457,540.7,455.7z
	 M542.5,463.7c-0.3-1.4-0.6-2.8-0.9-4.1c-0.2,0.2-0.5,0.5-0.9,0.6c-6.7,2.6-13.9,2.5-20.5-0.2c-0.3-0.1-0.5-0.3-0.8-0.5
	c-1.3,2.6-3.1,5.4-1.4,8.7c2.9,0,5.2,0,7.5,0c2.5,0,5.1,0.1,7.6,0c2.2-0.1,4.3-0.3,6.4-0.6C541.8,467.3,542.9,465.7,542.5,463.7z
	 M484.3,450.5c-0.2,0.2-0.4,0.5-0.7,0.7c-4.4,2.4-8.7,4.8-13.1,7.3c-1.4,0.8-2.7-0.1-3.2-1.2c-0.8,1.5-1.5,3-2.2,4.5
	c-1.1,2.5-0.9,4.1,0.6,5c0-0.9,0.4-1.9,1.5-2.2c5.7-2,11.1-4.5,16.2-7.7c0.4-0.2,0.7-0.3,1-0.3c0.3-0.4,0.5-0.7,0.8-1.1
	C486.7,453.8,485.6,451.9,484.3,450.5C484.4,450.5,484.3,450.5,484.3,450.5z M503.9,460.8c-2.9,0-2.9,4.5,0,4.5
	C506.8,465.4,506.8,460.8,503.9,460.8z M497.9,457.4c-2.9,0-2.9,4.5,0,4.5C500.8,462,500.8,457.4,497.9,457.4z M492.2,459.7
	c-2.9,0-2.9,4.5,0,4.5C495.1,464.2,495.1,459.7,492.2,459.7z M496,464.2c-2.9,0-2.9,4.5,0,4.5C498.9,468.7,498.9,464.2,496,464.2z"
	/>
<path class="st7" d="M415.5,383.1c0,0,0,0.1,0,0.1c0.2,0.2,0.4,0.3,0.6,0.5C415.9,383.5,415.7,383.3,415.5,383.1z M456.9,410.9
	c0.4-0.9,0.8-1.7,1.2-2.7c0.3-0.7,0.6-1.4,0.9-2.1c-4.5-2.5-8.8-4.8-13-7.2c-0.5-0.3-1-0.5-1.4-0.8c-6.5-3.8-13.4-5.9-21-6.1
	c-2.7,0-5.8-1.1-8-2.7c-2.2-1.5-4.6-4.2-5-6.6c-0.9-6.6-3.1-11.7-9.5-14.6c-0.6-0.3-1.1-0.6-1.7-1c-1.1,1-0.9,3.1,1.6,6.6
	c1.6,2.4,3.7,4.6,4,7.5c0.2,2.5-1,4.9-0.5,7.4c0.7,3.8,4.9,5.6,8.7,6.5c11.6,2.8,24.3,2.5,34.3,8.9c0.4,0.2,0.7,0.5,1,0.7
	c0.5,1.8,0.5,4,0.4,5.8c-0.7,13.6-1.5,27.3-6,40.1c-1.9,5.4-4.5,10.7-5.3,16.4c-0.5,3.9-0.2,7.9,0.2,11.9c1.3,13.7,3.6,28,12,38.9
	c2.3,2.9,5,5.6,8.3,7.2c0.8-4.4,0.3-8.5-2.7-12.6c-5.9-8.2-7.5-17.6-8.2-27.4c-0.4-5.9,1.5-11.8-0.9-17.6c-0.3-0.8,0.7-2.5,1.5-3.2
	c2.3-2,2.5-4.3,2.4-7.2c-0.5-14.8,0.4-29.5,5.6-43.6C456.1,412.6,456.5,411.8,456.9,410.9z M462.1,402.3
	C462.1,402.3,462.1,402.2,462.1,402.3c-0.1-0.1-0.1-0.1-0.1-0.1c0,0,0,0,0,0c-0.6-0.4-1.3-0.7-2-1c0.8,0.5,1.5,0.9,2.3,1.4
	C462.3,402.5,462.2,402.4,462.1,402.3z"/>
<path class="st8" d="M318.7,367.1c0.1,0,0.1-0.1,0.2-0.1c0,0,0,0,0-0.1C318.8,366.9,318.7,367.1,318.7,367.1z M213.6,291.8
	c1.5,3,4.2,2.3,6.7,3.1c-0.1-1.5-0.1-2.5-0.2-4.3C217.6,291.2,215.5,290.1,213.6,291.8z M219.7,285c-2.3-1.4-5.1-3.2-8-4.5
	c-0.7,0.2-1.5,0.7-1.8,1.2c-0.9,1.5,0,2.9,1.6,3.3c1.9,0.5,3.9,0.7,5.8,0.7C218.6,285.8,219.3,285.5,219.7,285z M271.7,455.2
	c0.1-0.2,0.3-0.4,0.4-0.6c-0.2-0.5-0.4-1-0.7-1.4C271.6,453.8,271.6,454.5,271.7,455.2z M339.5,366.5c-10.5-3.6-13.1-17-20-25.8
	c-11-14.1-31.6-14.7-48.2-21.3c-18.1-7.2-31.6-21.8-47.8-32.1c-0.3,2.9-0.5,5.7-0.8,8.7c1,0.7,2.2,1.5,3.4,2.2
	c5.4,3.1,11.2,5.8,16.3,9.4c8.2,5.7,15.9,12.1,24,18c2.4,1.8,5.1,3.7,8,4.4c4.8,1.3,10,1.4,14.9,2.6c3.8,0.9,8,1.9,10.9,4.2
	c5.6,4.6,10.5,10.2,15.6,15.4c1.5,1.5,2.7,3.4,4.3,4.8c4.6,4,9.3,7.8,14,11.8c0.7,0.6,1.1,1.7,1.7,2.7c-4.4,0.2-5.8-0.2-9-2.8
	c-2.4-1.9-4.7-3.8-7.9-1.8c0.1,0.9,0.3,1.7,0.3,2.6c0.2,8.7-2.6,16.8-5.8,24.5c-6.2,14.8-13.5,29-22.9,42c-2.6,3.6-5.2,7.3-7.7,11
	c-2,2.9-3.9,5.9-5.8,8.9c13.3-6.7,23.9-18.6,28.7-32.7c4-11.7,4.6-25.5,13.5-34.1c7.4-7.1,18.3-8.6,27.9-11.9
	c9.7-3.3,19.8-11,19-21.1C358.5,362.7,348.9,369.7,339.5,366.5z M442.1,348.4c-4.2-4.3-7.3-9.9-12.5-12.9c-6-3.5-13.4-2.9-20.3-3.5
	c-27.5-2.6-44.7-26.9-46.8-52.6c-4,0.8-10.5,0.5-16.7,0.8c-0.1,1.3-0.2,2.6-0.3,3.9c-0.5,5.7-0.9,11.5-1.6,17.2c-0.3,3,1,4.9,3.5,6
	c10.2,4.9,18.8,11.8,26.4,20.1c4.6,5,8.3,10.7,12.3,16.2c3,4.2,5.4,8.9,8.8,12.8c2.9,3.3,6.1,6.6,10.4,8.6c0.7-0.4,1.4-0.9,2.1-1.3
	c0.1-0.1,0.2-0.1,0.3-0.2c0.2-1.7,0.4-3.2,0.6-4.8c2.8-1.8,5.5-3.5,8.5-5.4c0.1-1.1,0-2.4,0.2-3.6c0.5-2.3,1-4.7,3.7-5.5
	c3-0.9,6.6,0.2,8.7,2.3c4.5,4.6,9.1,8.9,15.1,12c5.5,2.8,10,2.5,14.6-0.7C452.6,356,446.7,353.1,442.1,348.4z M479,359
	c-5.4,0.5-10.9,0.4-16.3-0.6c-1.3,1.5-2.5,3-3.8,4.6c4.5,1.9,8.6,3.4,13.2,3.8c3.5,0.3,7.3,0.7,10.4,2.3c4.7,2.3,8.9,2.4,13.3-0.2
	c1.1-0.6,2.2-1.3,3.3-1.8c8.1-3,13.2-8.4,16.8-15.1C503.6,354.1,491.5,357.9,479,359z M392.5,361.8c-4.1,0.2-5.1-3.3-6-5.6
	c-3.3-8.2-7.6-15.7-13.3-22.5c0,0-0.1-0.1-0.1-0.1c3.8,7,6.6,14.7,9.7,22c1.7,3.9,3.7,8,7.3,10.2c2.8,1.7,6,2,9.2,1.4
	c-1.3-0.9-2.5-2.1-3.8-3.1C394.5,363.2,393.5,361.8,392.5,361.8z"/>
</svg>
